<?xml version="1.0" encoding="utf-8" standalone="no"?>
<!DOCTYPE svg PUBLIC "-//W3C//DTD SVG 1.1//EN"
  "http://www.w3.org/Graphics/SVG/1.1/DTD/svg11.dtd">
<svg height="558pt" version="1.1" viewBox="0 0 851.4 558" width="851.4pt" xmlns="http://www.w3.org/2000/svg" xmlns:xlink="http://www.w3.org/1999/xlink">
 <metadata>
  <rdf:RDF xmlns:cc="http://creativecommons.org/ns#" xmlns:dc="http://purl.org/dc/elements/1.1/" xmlns:rdf="http://www.w3.org/1999/02/22-rdf-syntax-ns#">
   <cc:Work>
    <dc:type rdf:resource="http://purl.org/dc/dcmitype/StillImage"/>
    <dc:date>2021-05-03T23:08:42.839706</dc:date>
    <dc:format>image/svg+xml</dc:format>
    <dc:creator>
     <cc:Agent>
      <dc:title>Matplotlib v3.4.1, https://matplotlib.org/</dc:title>
     </cc:Agent>
    </dc:creator>
   </cc:Work>
  </rdf:RDF>
 </metadata>
 <defs>
  <style type="text/css">*{stroke-linecap:butt;stroke-linejoin:round;}</style>
 </defs>
 <g id="figure_1">
  <g id="patch_1">
   <path d="M 0 558 
L 851.4 558 
L 851.4 0 
L 0 0 
z
" style="fill:#ffffff;"/>
  </g>
  <g id="axes_1">
   <g id="LineCollection_1">
    <path clip-path="url(#p302e800dda)" d="M 402.988658 179.975452 
L 397.874434 314.894222 
" style="fill:none;stroke:#000000;"/>
    <path clip-path="url(#p302e800dda)" d="M 402.988658 179.975452 
L 505.915242 78.629139 
" style="fill:none;stroke:#000000;"/>
    <path clip-path="url(#p302e800dda)" d="M 397.874434 314.894222 
L 588.516921 245.517253 
" style="fill:none;stroke:#000000;"/>
    <path clip-path="url(#p302e800dda)" d="M 397.874434 314.894222 
L 181.654076 340.249722 
" style="fill:none;stroke:#000000;"/>
    <path clip-path="url(#p302e800dda)" d="M 397.874434 314.894222 
L 485.342771 450.27612 
" style="fill:none;stroke:#000000;"/>
    <path clip-path="url(#p302e800dda)" d="M 505.915242 78.629139 
L 676.845625 85.280021 
" style="fill:none;stroke:#000000;"/>
    <path clip-path="url(#p302e800dda)" d="M 588.516921 245.517253 
L 598.663647 139.840719 
" style="fill:none;stroke:#000000;"/>
    <path clip-path="url(#p302e800dda)" d="M 588.516921 245.517253 
L 730.453558 190.666993 
" style="fill:none;stroke:#000000;"/>
    <path clip-path="url(#p302e800dda)" d="M 588.516921 245.517253 
L 675.83088 164.821989 
" style="fill:none;stroke:#000000;"/>
    <path clip-path="url(#p302e800dda)" d="M 588.516921 245.517253 
L 625.022113 344.504968 
" style="fill:none;stroke:#000000;"/>
    <path clip-path="url(#p302e800dda)" d="M 181.654076 340.249722 
L 61.008243 403.837987 
" style="fill:none;stroke:#000000;"/>
    <path clip-path="url(#p302e800dda)" d="M 181.654076 340.249722 
L 45.245455 297.344944 
" style="fill:none;stroke:#000000;"/>
    <path clip-path="url(#p302e800dda)" d="M 676.845625 85.280021 
L 598.663647 139.840719 
" style="fill:none;stroke:#000000;"/>
    <path clip-path="url(#p302e800dda)" d="M 676.845625 85.280021 
L 730.453558 190.666993 
" style="fill:none;stroke:#000000;"/>
    <path clip-path="url(#p302e800dda)" d="M 676.845625 85.280021 
L 806.154545 31.909091 
" style="fill:none;stroke:#000000;"/>
    <path clip-path="url(#p302e800dda)" d="M 676.845625 85.280021 
L 675.83088 164.821989 
" style="fill:none;stroke:#000000;"/>
    <path clip-path="url(#p302e800dda)" d="M 485.342771 450.27612 
L 612.753208 526.090909 
" style="fill:none;stroke:#000000;"/>
   </g>
   <g id="PathCollection_1">
    <path clip-path="url(#p302e800dda)" d="M 402.988658 229.975452 
C 416.248813 229.975452 428.967652 224.707137 438.343997 215.330791 
C 447.720343 205.954446 452.988658 193.235607 452.988658 179.975452 
C 452.988658 166.715297 447.720343 153.996459 438.343997 144.620113 
C 428.967652 135.243768 416.248813 129.975452 402.988658 129.975452 
C 389.728503 129.975452 377.009665 135.243768 367.633319 144.620113 
C 358.256974 153.996459 352.988658 166.715297 352.988658 179.975452 
C 352.988658 193.235607 358.256974 205.954446 367.633319 215.330791 
C 377.009665 224.707137 389.728503 229.975452 402.988658 229.975452 
z
" style="fill:#d3d3d3;stroke:#d3d3d3;"/>
    <path clip-path="url(#p302e800dda)" d="M 397.874434 359.615581 
C 409.734677 359.615581 421.110752 354.903457 429.49721 346.516998 
C 437.883669 338.13054 442.595793 326.754465 442.595793 314.894222 
C 442.595793 303.033979 437.883669 291.657904 429.49721 283.271445 
C 421.110752 274.884987 409.734677 270.172862 397.874434 270.172862 
C 386.014191 270.172862 374.638116 274.884987 366.251657 283.271445 
C 357.865199 291.657904 353.153074 303.033979 353.153074 314.894222 
C 353.153074 326.754465 357.865199 338.13054 366.251657 346.516998 
C 374.638116 354.903457 386.014191 359.615581 397.874434 359.615581 
z
" style="fill:#ffa500;stroke:#ffa500;"/>
    <path clip-path="url(#p302e800dda)" d="M 505.915242 123.350498 
C 517.775486 123.350498 529.151561 118.638374 537.538019 110.251915 
C 545.924477 101.865457 550.636602 90.489382 550.636602 78.629139 
C 550.636602 66.768895 545.924477 55.39282 537.538019 47.006362 
C 529.151561 38.619904 517.775486 33.907779 505.915242 33.907779 
C 494.054999 33.907779 482.678924 38.619904 474.292466 47.006362 
C 465.906007 55.39282 461.193883 66.768895 461.193883 78.629139 
C 461.193883 90.489382 465.906007 101.865457 474.292466 110.251915 
C 482.678924 118.638374 494.054999 123.350498 505.915242 123.350498 
z
" style="fill:#ffa500;stroke:#ffa500;"/>
    <path clip-path="url(#p302e800dda)" d="M 588.516921 280.872592 
C 597.893267 280.872592 606.886844 277.14733 613.516921 270.517253 
C 620.146999 263.887175 623.87226 254.893598 623.87226 245.517253 
C 623.87226 236.140907 620.146999 227.14733 613.516921 220.517253 
C 606.886844 213.887175 597.893267 210.161914 588.516921 210.161914 
C 579.140576 210.161914 570.146999 213.887175 563.516921 220.517253 
C 556.886844 227.14733 553.161582 236.140907 553.161582 245.517253 
C 553.161582 254.893598 556.886844 263.887175 563.516921 270.517253 
C 570.146999 277.14733 579.140576 280.872592 588.516921 280.872592 
z
" style="fill:#00ffff;stroke:#00ffff;"/>
    <path clip-path="url(#p302e800dda)" d="M 181.654076 375.605061 
C 191.030422 375.605061 200.023999 371.879799 206.654076 365.249722 
C 213.284154 358.619644 217.009415 349.626067 217.009415 340.249722 
C 217.009415 330.873376 213.284154 321.879799 206.654076 315.249722 
C 200.023999 308.619644 191.030422 304.894383 181.654076 304.894383 
C 172.277731 304.894383 163.284154 308.619644 156.654076 315.249722 
C 150.023999 321.879799 146.298737 330.873376 146.298737 340.249722 
C 146.298737 349.626067 150.023999 358.619644 156.654076 365.249722 
C 163.284154 371.879799 172.277731 375.605061 181.654076 375.605061 
z
" style="fill:#00ffff;stroke:#00ffff;"/>
    <path clip-path="url(#p302e800dda)" d="M 676.845625 120.63536 
C 686.221971 120.63536 695.215548 116.910098 701.845625 110.280021 
C 708.475703 103.649943 712.200964 94.656366 712.200964 85.280021 
C 712.200964 75.903675 708.475703 66.910098 701.845625 60.280021 
C 695.215548 53.649943 686.221971 49.924681 676.845625 49.924681 
C 667.46928 49.924681 658.475703 53.649943 651.845625 60.280021 
C 645.215548 66.910098 641.490286 75.903675 641.490286 85.280021 
C 641.490286 94.656366 645.215548 103.649943 651.845625 110.280021 
C 658.475703 116.910098 667.46928 120.63536 676.845625 120.63536 
z
" style="fill:#00ffff;stroke:#00ffff;"/>
    <path clip-path="url(#p302e800dda)" d="M 485.342771 485.631459 
C 494.719117 485.631459 503.712694 481.906197 510.342771 475.27612 
C 516.972849 468.646042 520.698111 459.652465 520.698111 450.27612 
C 520.698111 440.899774 516.972849 431.906197 510.342771 425.27612 
C 503.712694 418.646042 494.719117 414.920781 485.342771 414.920781 
C 475.966426 414.920781 466.972849 418.646042 460.342771 425.27612 
C 453.712694 431.906197 449.987432 440.899774 449.987432 450.27612 
C 449.987432 459.652465 453.712694 468.646042 460.342771 475.27612 
C 466.972849 481.906197 475.966426 485.631459 485.342771 485.631459 
z
" style="fill:#00ffff;stroke:#00ffff;"/>
    <path clip-path="url(#p302e800dda)" d="M 598.663647 162.201399 
C 604.593769 162.201399 610.281806 159.845337 614.475036 155.652108 
C 618.668265 151.458878 621.024327 145.770841 621.024327 139.840719 
C 621.024327 133.910598 618.668265 128.22256 614.475036 124.029331 
C 610.281806 119.836102 604.593769 117.480039 598.663647 117.480039 
C 592.733526 117.480039 587.045488 119.836102 582.852259 124.029331 
C 578.65903 128.22256 576.302968 133.910598 576.302968 139.840719 
C 576.302968 145.770841 578.65903 151.458878 582.852259 155.652108 
C 587.045488 159.845337 592.733526 162.201399 598.663647 162.201399 
z
" style="fill:#ffd700;stroke:#ffd700;"/>
    <path clip-path="url(#p302e800dda)" d="M 730.453558 213.027672 
C 736.383679 213.027672 742.071717 210.67161 746.264946 206.478381 
C 750.458175 202.285152 752.814237 196.597114 752.814237 190.666993 
C 752.814237 184.736871 750.458175 179.048834 746.264946 174.855604 
C 742.071717 170.662375 736.383679 168.306313 730.453558 168.306313 
C 724.523436 168.306313 718.835399 170.662375 714.642169 174.855604 
C 710.44894 179.048834 708.092878 184.736871 708.092878 190.666993 
C 708.092878 196.597114 710.44894 202.285152 714.642169 206.478381 
C 718.835399 210.67161 724.523436 213.027672 730.453558 213.027672 
z
" style="fill:#ffd700;stroke:#ffd700;"/>
    <path clip-path="url(#p302e800dda)" d="M 675.83088 187.182669 
C 681.761002 187.182669 687.449039 184.826606 691.642269 180.633377 
C 695.835498 176.440148 698.19156 170.752111 698.19156 164.821989 
C 698.19156 158.891867 695.835498 153.20383 691.642269 149.010601 
C 687.449039 144.817372 681.761002 142.461309 675.83088 142.461309 
C 669.900759 142.461309 664.212721 144.817372 660.019492 149.010601 
C 655.826263 153.20383 653.4702 158.891867 653.4702 164.821989 
C 653.4702 170.752111 655.826263 176.440148 660.019492 180.633377 
C 664.212721 184.826606 669.900759 187.182669 675.83088 187.182669 
z
" style="fill:#ffd700;stroke:#ffd700;"/>
    <path clip-path="url(#p302e800dda)" d="M 625.022113 366.865648 
C 630.952234 366.865648 636.640272 364.509585 640.833501 360.316356 
C 645.02673 356.123127 647.382792 350.435089 647.382792 344.504968 
C 647.382792 338.574846 645.02673 332.886809 640.833501 328.69358 
C 636.640272 324.50035 630.952234 322.144288 625.022113 322.144288 
C 619.091991 322.144288 613.403953 324.50035 609.210724 328.69358 
C 605.017495 332.886809 602.661433 338.574846 602.661433 344.504968 
C 602.661433 350.435089 605.017495 356.123127 609.210724 360.316356 
C 613.403953 364.509585 619.091991 366.865648 625.022113 366.865648 
z
" style="fill:#ffd700;stroke:#ffd700;"/>
    <path clip-path="url(#p302e800dda)" d="M 61.008243 426.198667 
C 66.938364 426.198667 72.626402 423.842604 76.819631 419.649375 
C 81.01286 415.456146 83.368923 409.768108 83.368923 403.837987 
C 83.368923 397.907865 81.01286 392.219828 76.819631 388.026598 
C 72.626402 383.833369 66.938364 381.477307 61.008243 381.477307 
C 55.078121 381.477307 49.390084 383.833369 45.196855 388.026598 
C 41.003625 392.219828 38.647563 397.907865 38.647563 403.837987 
C 38.647563 409.768108 41.003625 415.456146 45.196855 419.649375 
C 49.390084 423.842604 55.078121 426.198667 61.008243 426.198667 
z
" style="fill:#ffd700;stroke:#ffd700;"/>
    <path clip-path="url(#p302e800dda)" d="M 45.245455 319.705624 
C 51.175576 319.705624 56.863614 317.349562 61.056843 313.156333 
C 65.250072 308.963103 67.606134 303.275066 67.606134 297.344944 
C 67.606134 291.414823 65.250072 285.726785 61.056843 281.533556 
C 56.863614 277.340327 51.175576 274.984265 45.245455 274.984265 
C 39.315333 274.984265 33.627295 277.340327 29.434066 281.533556 
C 25.240837 285.726785 22.884775 291.414823 22.884775 297.344944 
C 22.884775 303.275066 25.240837 308.963103 29.434066 313.156333 
C 33.627295 317.349562 39.315333 319.705624 45.245455 319.705624 
z
" style="fill:#ffd700;stroke:#ffd700;"/>
    <path clip-path="url(#p302e800dda)" d="M 806.154545 54.269771 
C 812.084667 54.269771 817.772705 51.913708 821.965934 47.720479 
C 826.159163 43.52725 828.515225 37.839213 828.515225 31.909091 
C 828.515225 25.978969 826.159163 20.290932 821.965934 16.097703 
C 817.772705 11.904473 812.084667 9.548411 806.154545 9.548411 
C 800.224424 9.548411 794.536386 11.904473 790.343157 16.097703 
C 786.149928 20.290932 783.793866 25.978969 783.793866 31.909091 
C 783.793866 37.839213 786.149928 43.52725 790.343157 47.720479 
C 794.536386 51.913708 800.224424 54.269771 806.154545 54.269771 
z
" style="fill:#ffd700;stroke:#ffd700;"/>
    <path clip-path="url(#p302e800dda)" d="M 612.753208 548.451589 
C 618.683329 548.451589 624.371367 546.095527 628.564596 541.902297 
C 632.757825 537.709068 635.113888 532.021031 635.113888 526.090909 
C 635.113888 520.160787 632.757825 514.47275 628.564596 510.279521 
C 624.371367 506.086292 618.683329 503.730229 612.753208 503.730229 
C 606.823086 503.730229 601.135049 506.086292 596.94182 510.279521 
C 592.74859 514.47275 590.392528 520.160787 590.392528 526.090909 
C 590.392528 532.021031 592.74859 537.709068 596.94182 541.902297 
C 601.135049 546.095527 606.823086 548.451589 612.753208 548.451589 
z
" style="fill:#00ff00;stroke:#00ff00;"/>
   </g>
   <g id="text_1">
    <g clip-path="url(#p302e800dda)">
     <!-- LSASS Memory -->
     <g transform="translate(346.368346 184.114515)scale(0.15 -0.15)">
      <defs>
       <path d="M 628 4666 
L 1259 4666 
L 1259 531 
L 3531 531 
L 3531 0 
L 628 0 
L 628 4666 
z
" id="DejaVuSans-4c" transform="scale(0.015625)"/>
       <path d="M 3425 4513 
L 3425 3897 
Q 3066 4069 2747 4153 
Q 2428 4238 2131 4238 
Q 1616 4238 1336 4038 
Q 1056 3838 1056 3469 
Q 1056 3159 1242 3001 
Q 1428 2844 1947 2747 
L 2328 2669 
Q 3034 2534 3370 2195 
Q 3706 1856 3706 1288 
Q 3706 609 3251 259 
Q 2797 -91 1919 -91 
Q 1588 -91 1214 -16 
Q 841 59 441 206 
L 441 856 
Q 825 641 1194 531 
Q 1563 422 1919 422 
Q 2459 422 2753 634 
Q 3047 847 3047 1241 
Q 3047 1584 2836 1778 
Q 2625 1972 2144 2069 
L 1759 2144 
Q 1053 2284 737 2584 
Q 422 2884 422 3419 
Q 422 4038 858 4394 
Q 1294 4750 2059 4750 
Q 2388 4750 2728 4690 
Q 3069 4631 3425 4513 
z
" id="DejaVuSans-53" transform="scale(0.015625)"/>
       <path d="M 2188 4044 
L 1331 1722 
L 3047 1722 
L 2188 4044 
z
M 1831 4666 
L 2547 4666 
L 4325 0 
L 3669 0 
L 3244 1197 
L 1141 1197 
L 716 0 
L 50 0 
L 1831 4666 
z
" id="DejaVuSans-41" transform="scale(0.015625)"/>
       <path id="DejaVuSans-20" transform="scale(0.015625)"/>
       <path d="M 628 4666 
L 1569 4666 
L 2759 1491 
L 3956 4666 
L 4897 4666 
L 4897 0 
L 4281 0 
L 4281 4097 
L 3078 897 
L 2444 897 
L 1241 4097 
L 1241 0 
L 628 0 
L 628 4666 
z
" id="DejaVuSans-4d" transform="scale(0.015625)"/>
       <path d="M 3597 1894 
L 3597 1613 
L 953 1613 
Q 991 1019 1311 708 
Q 1631 397 2203 397 
Q 2534 397 2845 478 
Q 3156 559 3463 722 
L 3463 178 
Q 3153 47 2828 -22 
Q 2503 -91 2169 -91 
Q 1331 -91 842 396 
Q 353 884 353 1716 
Q 353 2575 817 3079 
Q 1281 3584 2069 3584 
Q 2775 3584 3186 3129 
Q 3597 2675 3597 1894 
z
M 3022 2063 
Q 3016 2534 2758 2815 
Q 2500 3097 2075 3097 
Q 1594 3097 1305 2825 
Q 1016 2553 972 2059 
L 3022 2063 
z
" id="DejaVuSans-65" transform="scale(0.015625)"/>
       <path d="M 3328 2828 
Q 3544 3216 3844 3400 
Q 4144 3584 4550 3584 
Q 5097 3584 5394 3201 
Q 5691 2819 5691 2113 
L 5691 0 
L 5113 0 
L 5113 2094 
Q 5113 2597 4934 2840 
Q 4756 3084 4391 3084 
Q 3944 3084 3684 2787 
Q 3425 2491 3425 1978 
L 3425 0 
L 2847 0 
L 2847 2094 
Q 2847 2600 2669 2842 
Q 2491 3084 2119 3084 
Q 1678 3084 1418 2786 
Q 1159 2488 1159 1978 
L 1159 0 
L 581 0 
L 581 3500 
L 1159 3500 
L 1159 2956 
Q 1356 3278 1631 3431 
Q 1906 3584 2284 3584 
Q 2666 3584 2933 3390 
Q 3200 3197 3328 2828 
z
" id="DejaVuSans-6d" transform="scale(0.015625)"/>
       <path d="M 1959 3097 
Q 1497 3097 1228 2736 
Q 959 2375 959 1747 
Q 959 1119 1226 758 
Q 1494 397 1959 397 
Q 2419 397 2687 759 
Q 2956 1122 2956 1747 
Q 2956 2369 2687 2733 
Q 2419 3097 1959 3097 
z
M 1959 3584 
Q 2709 3584 3137 3096 
Q 3566 2609 3566 1747 
Q 3566 888 3137 398 
Q 2709 -91 1959 -91 
Q 1206 -91 779 398 
Q 353 888 353 1747 
Q 353 2609 779 3096 
Q 1206 3584 1959 3584 
z
" id="DejaVuSans-6f" transform="scale(0.015625)"/>
       <path d="M 2631 2963 
Q 2534 3019 2420 3045 
Q 2306 3072 2169 3072 
Q 1681 3072 1420 2755 
Q 1159 2438 1159 1844 
L 1159 0 
L 581 0 
L 581 3500 
L 1159 3500 
L 1159 2956 
Q 1341 3275 1631 3429 
Q 1922 3584 2338 3584 
Q 2397 3584 2469 3576 
Q 2541 3569 2628 3553 
L 2631 2963 
z
" id="DejaVuSans-72" transform="scale(0.015625)"/>
       <path d="M 2059 -325 
Q 1816 -950 1584 -1140 
Q 1353 -1331 966 -1331 
L 506 -1331 
L 506 -850 
L 844 -850 
Q 1081 -850 1212 -737 
Q 1344 -625 1503 -206 
L 1606 56 
L 191 3500 
L 800 3500 
L 1894 763 
L 2988 3500 
L 3597 3500 
L 2059 -325 
z
" id="DejaVuSans-79" transform="scale(0.015625)"/>
      </defs>
      <use xlink:href="#DejaVuSans-4c"/>
      <use x="55.712891" xlink:href="#DejaVuSans-53"/>
      <use x="121.064453" xlink:href="#DejaVuSans-41"/>
      <use x="189.472656" xlink:href="#DejaVuSans-53"/>
      <use x="252.949219" xlink:href="#DejaVuSans-53"/>
      <use x="316.425781" xlink:href="#DejaVuSans-20"/>
      <use x="348.212891" xlink:href="#DejaVuSans-4d"/>
      <use x="434.492188" xlink:href="#DejaVuSans-65"/>
      <use x="496.015625" xlink:href="#DejaVuSans-6d"/>
      <use x="593.427734" xlink:href="#DejaVuSans-6f"/>
      <use x="654.609375" xlink:href="#DejaVuSans-72"/>
      <use x="695.722656" xlink:href="#DejaVuSans-79"/>
     </g>
    </g>
   </g>
   <g id="text_2">
    <g clip-path="url(#p302e800dda)">
     <!-- process -->
     <g transform="translate(369.056856 319.033284)scale(0.15 -0.15)">
      <defs>
       <path d="M 1159 525 
L 1159 -1331 
L 581 -1331 
L 581 3500 
L 1159 3500 
L 1159 2969 
Q 1341 3281 1617 3432 
Q 1894 3584 2278 3584 
Q 2916 3584 3314 3078 
Q 3713 2572 3713 1747 
Q 3713 922 3314 415 
Q 2916 -91 2278 -91 
Q 1894 -91 1617 61 
Q 1341 213 1159 525 
z
M 3116 1747 
Q 3116 2381 2855 2742 
Q 2594 3103 2138 3103 
Q 1681 3103 1420 2742 
Q 1159 2381 1159 1747 
Q 1159 1113 1420 752 
Q 1681 391 2138 391 
Q 2594 391 2855 752 
Q 3116 1113 3116 1747 
z
" id="DejaVuSans-70" transform="scale(0.015625)"/>
       <path d="M 3122 3366 
L 3122 2828 
Q 2878 2963 2633 3030 
Q 2388 3097 2138 3097 
Q 1578 3097 1268 2742 
Q 959 2388 959 1747 
Q 959 1106 1268 751 
Q 1578 397 2138 397 
Q 2388 397 2633 464 
Q 2878 531 3122 666 
L 3122 134 
Q 2881 22 2623 -34 
Q 2366 -91 2075 -91 
Q 1284 -91 818 406 
Q 353 903 353 1747 
Q 353 2603 823 3093 
Q 1294 3584 2113 3584 
Q 2378 3584 2631 3529 
Q 2884 3475 3122 3366 
z
" id="DejaVuSans-63" transform="scale(0.015625)"/>
       <path d="M 2834 3397 
L 2834 2853 
Q 2591 2978 2328 3040 
Q 2066 3103 1784 3103 
Q 1356 3103 1142 2972 
Q 928 2841 928 2578 
Q 928 2378 1081 2264 
Q 1234 2150 1697 2047 
L 1894 2003 
Q 2506 1872 2764 1633 
Q 3022 1394 3022 966 
Q 3022 478 2636 193 
Q 2250 -91 1575 -91 
Q 1294 -91 989 -36 
Q 684 19 347 128 
L 347 722 
Q 666 556 975 473 
Q 1284 391 1588 391 
Q 1994 391 2212 530 
Q 2431 669 2431 922 
Q 2431 1156 2273 1281 
Q 2116 1406 1581 1522 
L 1381 1569 
Q 847 1681 609 1914 
Q 372 2147 372 2553 
Q 372 3047 722 3315 
Q 1072 3584 1716 3584 
Q 2034 3584 2315 3537 
Q 2597 3491 2834 3397 
z
" id="DejaVuSans-73" transform="scale(0.015625)"/>
      </defs>
      <use xlink:href="#DejaVuSans-70"/>
      <use x="63.476562" xlink:href="#DejaVuSans-72"/>
      <use x="102.339844" xlink:href="#DejaVuSans-6f"/>
      <use x="163.521484" xlink:href="#DejaVuSans-63"/>
      <use x="218.501953" xlink:href="#DejaVuSans-65"/>
      <use x="280.025391" xlink:href="#DejaVuSans-73"/>
      <use x="332.125" xlink:href="#DejaVuSans-73"/>
     </g>
    </g>
   </g>
   <g id="text_3">
    <g clip-path="url(#p302e800dda)">
     <!-- command -->
     <g transform="translate(468.480867 82.768201)scale(0.15 -0.15)">
      <defs>
       <path d="M 2194 1759 
Q 1497 1759 1228 1600 
Q 959 1441 959 1056 
Q 959 750 1161 570 
Q 1363 391 1709 391 
Q 2188 391 2477 730 
Q 2766 1069 2766 1631 
L 2766 1759 
L 2194 1759 
z
M 3341 1997 
L 3341 0 
L 2766 0 
L 2766 531 
Q 2569 213 2275 61 
Q 1981 -91 1556 -91 
Q 1019 -91 701 211 
Q 384 513 384 1019 
Q 384 1609 779 1909 
Q 1175 2209 1959 2209 
L 2766 2209 
L 2766 2266 
Q 2766 2663 2505 2880 
Q 2244 3097 1772 3097 
Q 1472 3097 1187 3025 
Q 903 2953 641 2809 
L 641 3341 
Q 956 3463 1253 3523 
Q 1550 3584 1831 3584 
Q 2591 3584 2966 3190 
Q 3341 2797 3341 1997 
z
" id="DejaVuSans-61" transform="scale(0.015625)"/>
       <path d="M 3513 2113 
L 3513 0 
L 2938 0 
L 2938 2094 
Q 2938 2591 2744 2837 
Q 2550 3084 2163 3084 
Q 1697 3084 1428 2787 
Q 1159 2491 1159 1978 
L 1159 0 
L 581 0 
L 581 3500 
L 1159 3500 
L 1159 2956 
Q 1366 3272 1645 3428 
Q 1925 3584 2291 3584 
Q 2894 3584 3203 3211 
Q 3513 2838 3513 2113 
z
" id="DejaVuSans-6e" transform="scale(0.015625)"/>
       <path d="M 2906 2969 
L 2906 4863 
L 3481 4863 
L 3481 0 
L 2906 0 
L 2906 525 
Q 2725 213 2448 61 
Q 2172 -91 1784 -91 
Q 1150 -91 751 415 
Q 353 922 353 1747 
Q 353 2572 751 3078 
Q 1150 3584 1784 3584 
Q 2172 3584 2448 3432 
Q 2725 3281 2906 2969 
z
M 947 1747 
Q 947 1113 1208 752 
Q 1469 391 1925 391 
Q 2381 391 2643 752 
Q 2906 1113 2906 1747 
Q 2906 2381 2643 2742 
Q 2381 3103 1925 3103 
Q 1469 3103 1208 2742 
Q 947 2381 947 1747 
z
" id="DejaVuSans-64" transform="scale(0.015625)"/>
      </defs>
      <use xlink:href="#DejaVuSans-63"/>
      <use x="54.980469" xlink:href="#DejaVuSans-6f"/>
      <use x="116.162109" xlink:href="#DejaVuSans-6d"/>
      <use x="213.574219" xlink:href="#DejaVuSans-6d"/>
      <use x="310.986328" xlink:href="#DejaVuSans-61"/>
      <use x="372.265625" xlink:href="#DejaVuSans-6e"/>
      <use x="435.644531" xlink:href="#DejaVuSans-64"/>
     </g>
    </g>
   </g>
   <g id="text_4">
    <g clip-path="url(#p302e800dda)">
     <!-- process creation -->
     <g transform="translate(526.700515 249.656315)scale(0.15 -0.15)">
      <defs>
       <path d="M 1172 4494 
L 1172 3500 
L 2356 3500 
L 2356 3053 
L 1172 3053 
L 1172 1153 
Q 1172 725 1289 603 
Q 1406 481 1766 481 
L 2356 481 
L 2356 0 
L 1766 0 
Q 1100 0 847 248 
Q 594 497 594 1153 
L 594 3053 
L 172 3053 
L 172 3500 
L 594 3500 
L 594 4494 
L 1172 4494 
z
" id="DejaVuSans-74" transform="scale(0.015625)"/>
       <path d="M 603 3500 
L 1178 3500 
L 1178 0 
L 603 0 
L 603 3500 
z
M 603 4863 
L 1178 4863 
L 1178 4134 
L 603 4134 
L 603 4863 
z
" id="DejaVuSans-69" transform="scale(0.015625)"/>
      </defs>
      <use xlink:href="#DejaVuSans-70"/>
      <use x="63.476562" xlink:href="#DejaVuSans-72"/>
      <use x="102.339844" xlink:href="#DejaVuSans-6f"/>
      <use x="163.521484" xlink:href="#DejaVuSans-63"/>
      <use x="218.501953" xlink:href="#DejaVuSans-65"/>
      <use x="280.025391" xlink:href="#DejaVuSans-73"/>
      <use x="332.125" xlink:href="#DejaVuSans-73"/>
      <use x="384.224609" xlink:href="#DejaVuSans-20"/>
      <use x="416.011719" xlink:href="#DejaVuSans-63"/>
      <use x="470.992188" xlink:href="#DejaVuSans-72"/>
      <use x="509.855469" xlink:href="#DejaVuSans-65"/>
      <use x="571.378906" xlink:href="#DejaVuSans-61"/>
      <use x="632.658203" xlink:href="#DejaVuSans-74"/>
      <use x="671.867188" xlink:href="#DejaVuSans-69"/>
      <use x="699.650391" xlink:href="#DejaVuSans-6f"/>
      <use x="760.832031" xlink:href="#DejaVuSans-6e"/>
     </g>
    </g>
   </g>
   <g id="text_5">
    <g clip-path="url(#p302e800dda)">
     <!-- process access -->
     <g transform="translate(125.180248 344.388784)scale(0.15 -0.15)">
      <use xlink:href="#DejaVuSans-70"/>
      <use x="63.476562" xlink:href="#DejaVuSans-72"/>
      <use x="102.339844" xlink:href="#DejaVuSans-6f"/>
      <use x="163.521484" xlink:href="#DejaVuSans-63"/>
      <use x="218.501953" xlink:href="#DejaVuSans-65"/>
      <use x="280.025391" xlink:href="#DejaVuSans-73"/>
      <use x="332.125" xlink:href="#DejaVuSans-73"/>
      <use x="384.224609" xlink:href="#DejaVuSans-20"/>
      <use x="416.011719" xlink:href="#DejaVuSans-61"/>
      <use x="477.291016" xlink:href="#DejaVuSans-63"/>
      <use x="532.271484" xlink:href="#DejaVuSans-63"/>
      <use x="587.251953" xlink:href="#DejaVuSans-65"/>
      <use x="648.775391" xlink:href="#DejaVuSans-73"/>
      <use x="700.875" xlink:href="#DejaVuSans-73"/>
     </g>
    </g>
   </g>
   <g id="text_6">
    <g clip-path="url(#p302e800dda)">
     <!-- command execution -->
     <g transform="translate(600.481563 89.419083)scale(0.15 -0.15)">
      <defs>
       <path d="M 3513 3500 
L 2247 1797 
L 3578 0 
L 2900 0 
L 1881 1375 
L 863 0 
L 184 0 
L 1544 1831 
L 300 3500 
L 978 3500 
L 1906 2253 
L 2834 3500 
L 3513 3500 
z
" id="DejaVuSans-78" transform="scale(0.015625)"/>
       <path d="M 544 1381 
L 544 3500 
L 1119 3500 
L 1119 1403 
Q 1119 906 1312 657 
Q 1506 409 1894 409 
Q 2359 409 2629 706 
Q 2900 1003 2900 1516 
L 2900 3500 
L 3475 3500 
L 3475 0 
L 2900 0 
L 2900 538 
Q 2691 219 2414 64 
Q 2138 -91 1772 -91 
Q 1169 -91 856 284 
Q 544 659 544 1381 
z
M 1991 3584 
L 1991 3584 
z
" id="DejaVuSans-75" transform="scale(0.015625)"/>
      </defs>
      <use xlink:href="#DejaVuSans-63"/>
      <use x="54.980469" xlink:href="#DejaVuSans-6f"/>
      <use x="116.162109" xlink:href="#DejaVuSans-6d"/>
      <use x="213.574219" xlink:href="#DejaVuSans-6d"/>
      <use x="310.986328" xlink:href="#DejaVuSans-61"/>
      <use x="372.265625" xlink:href="#DejaVuSans-6e"/>
      <use x="435.644531" xlink:href="#DejaVuSans-64"/>
      <use x="499.121094" xlink:href="#DejaVuSans-20"/>
      <use x="530.908203" xlink:href="#DejaVuSans-65"/>
      <use x="590.681641" xlink:href="#DejaVuSans-78"/>
      <use x="646.736328" xlink:href="#DejaVuSans-65"/>
      <use x="708.259766" xlink:href="#DejaVuSans-63"/>
      <use x="763.240234" xlink:href="#DejaVuSans-75"/>
      <use x="826.619141" xlink:href="#DejaVuSans-74"/>
      <use x="865.828125" xlink:href="#DejaVuSans-69"/>
      <use x="893.611328" xlink:href="#DejaVuSans-6f"/>
      <use x="954.792969" xlink:href="#DejaVuSans-6e"/>
     </g>
    </g>
   </g>
   <g id="text_7">
    <g clip-path="url(#p302e800dda)">
     <!-- os api execution -->
     <g transform="translate(424.092381 454.415182)scale(0.15 -0.15)">
      <use xlink:href="#DejaVuSans-6f"/>
      <use x="61.181641" xlink:href="#DejaVuSans-73"/>
      <use x="113.28125" xlink:href="#DejaVuSans-20"/>
      <use x="145.068359" xlink:href="#DejaVuSans-61"/>
      <use x="206.347656" xlink:href="#DejaVuSans-70"/>
      <use x="269.824219" xlink:href="#DejaVuSans-69"/>
      <use x="297.607422" xlink:href="#DejaVuSans-20"/>
      <use x="329.394531" xlink:href="#DejaVuSans-65"/>
      <use x="389.167969" xlink:href="#DejaVuSans-78"/>
      <use x="445.222656" xlink:href="#DejaVuSans-65"/>
      <use x="506.746094" xlink:href="#DejaVuSans-63"/>
      <use x="561.726562" xlink:href="#DejaVuSans-75"/>
      <use x="625.105469" xlink:href="#DejaVuSans-74"/>
      <use x="664.314453" xlink:href="#DejaVuSans-69"/>
      <use x="692.097656" xlink:href="#DejaVuSans-6f"/>
      <use x="753.279297" xlink:href="#DejaVuSans-6e"/>
     </g>
    </g>
   </g>
   <g id="text_8">
    <g clip-path="url(#p302e800dda)">
     <!-- 4688 -->
     <g transform="translate(579.576147 143.979782)scale(0.15 -0.15)">
      <defs>
       <path d="M 2419 4116 
L 825 1625 
L 2419 1625 
L 2419 4116 
z
M 2253 4666 
L 3047 4666 
L 3047 1625 
L 3713 1625 
L 3713 1100 
L 3047 1100 
L 3047 0 
L 2419 0 
L 2419 1100 
L 313 1100 
L 313 1709 
L 2253 4666 
z
" id="DejaVuSans-34" transform="scale(0.015625)"/>
       <path d="M 2113 2584 
Q 1688 2584 1439 2293 
Q 1191 2003 1191 1497 
Q 1191 994 1439 701 
Q 1688 409 2113 409 
Q 2538 409 2786 701 
Q 3034 994 3034 1497 
Q 3034 2003 2786 2293 
Q 2538 2584 2113 2584 
z
M 3366 4563 
L 3366 3988 
Q 3128 4100 2886 4159 
Q 2644 4219 2406 4219 
Q 1781 4219 1451 3797 
Q 1122 3375 1075 2522 
Q 1259 2794 1537 2939 
Q 1816 3084 2150 3084 
Q 2853 3084 3261 2657 
Q 3669 2231 3669 1497 
Q 3669 778 3244 343 
Q 2819 -91 2113 -91 
Q 1303 -91 875 529 
Q 447 1150 447 2328 
Q 447 3434 972 4092 
Q 1497 4750 2381 4750 
Q 2619 4750 2861 4703 
Q 3103 4656 3366 4563 
z
" id="DejaVuSans-36" transform="scale(0.015625)"/>
       <path d="M 2034 2216 
Q 1584 2216 1326 1975 
Q 1069 1734 1069 1313 
Q 1069 891 1326 650 
Q 1584 409 2034 409 
Q 2484 409 2743 651 
Q 3003 894 3003 1313 
Q 3003 1734 2745 1975 
Q 2488 2216 2034 2216 
z
M 1403 2484 
Q 997 2584 770 2862 
Q 544 3141 544 3541 
Q 544 4100 942 4425 
Q 1341 4750 2034 4750 
Q 2731 4750 3128 4425 
Q 3525 4100 3525 3541 
Q 3525 3141 3298 2862 
Q 3072 2584 2669 2484 
Q 3125 2378 3379 2068 
Q 3634 1759 3634 1313 
Q 3634 634 3220 271 
Q 2806 -91 2034 -91 
Q 1263 -91 848 271 
Q 434 634 434 1313 
Q 434 1759 690 2068 
Q 947 2378 1403 2484 
z
M 1172 3481 
Q 1172 3119 1398 2916 
Q 1625 2713 2034 2713 
Q 2441 2713 2670 2916 
Q 2900 3119 2900 3481 
Q 2900 3844 2670 4047 
Q 2441 4250 2034 4250 
Q 1625 4250 1398 4047 
Q 1172 3844 1172 3481 
z
" id="DejaVuSans-38" transform="scale(0.015625)"/>
      </defs>
      <use xlink:href="#DejaVuSans-34"/>
      <use x="63.623047" xlink:href="#DejaVuSans-36"/>
      <use x="127.246094" xlink:href="#DejaVuSans-38"/>
      <use x="190.869141" xlink:href="#DejaVuSans-38"/>
     </g>
    </g>
   </g>
   <g id="text_9">
    <g clip-path="url(#p302e800dda)">
     <!-- 1 -->
     <g transform="translate(725.681683 194.806055)scale(0.15 -0.15)">
      <defs>
       <path d="M 794 531 
L 1825 531 
L 1825 4091 
L 703 3866 
L 703 4441 
L 1819 4666 
L 2450 4666 
L 2450 531 
L 3481 531 
L 3481 0 
L 794 0 
L 794 531 
z
" id="DejaVuSans-31" transform="scale(0.015625)"/>
      </defs>
      <use xlink:href="#DejaVuSans-31"/>
     </g>
    </g>
   </g>
   <g id="text_10">
    <g clip-path="url(#p302e800dda)">
     <!-- DeviceProcessEvents -->
     <g transform="translate(596.339083 168.961051)scale(0.15 -0.15)">
      <defs>
       <path d="M 1259 4147 
L 1259 519 
L 2022 519 
Q 2988 519 3436 956 
Q 3884 1394 3884 2338 
Q 3884 3275 3436 3711 
Q 2988 4147 2022 4147 
L 1259 4147 
z
M 628 4666 
L 1925 4666 
Q 3281 4666 3915 4102 
Q 4550 3538 4550 2338 
Q 4550 1131 3912 565 
Q 3275 0 1925 0 
L 628 0 
L 628 4666 
z
" id="DejaVuSans-44" transform="scale(0.015625)"/>
       <path d="M 191 3500 
L 800 3500 
L 1894 563 
L 2988 3500 
L 3597 3500 
L 2284 0 
L 1503 0 
L 191 3500 
z
" id="DejaVuSans-76" transform="scale(0.015625)"/>
       <path d="M 1259 4147 
L 1259 2394 
L 2053 2394 
Q 2494 2394 2734 2622 
Q 2975 2850 2975 3272 
Q 2975 3691 2734 3919 
Q 2494 4147 2053 4147 
L 1259 4147 
z
M 628 4666 
L 2053 4666 
Q 2838 4666 3239 4311 
Q 3641 3956 3641 3272 
Q 3641 2581 3239 2228 
Q 2838 1875 2053 1875 
L 1259 1875 
L 1259 0 
L 628 0 
L 628 4666 
z
" id="DejaVuSans-50" transform="scale(0.015625)"/>
       <path d="M 628 4666 
L 3578 4666 
L 3578 4134 
L 1259 4134 
L 1259 2753 
L 3481 2753 
L 3481 2222 
L 1259 2222 
L 1259 531 
L 3634 531 
L 3634 0 
L 628 0 
L 628 4666 
z
" id="DejaVuSans-45" transform="scale(0.015625)"/>
      </defs>
      <use xlink:href="#DejaVuSans-44"/>
      <use x="77.001953" xlink:href="#DejaVuSans-65"/>
      <use x="138.525391" xlink:href="#DejaVuSans-76"/>
      <use x="197.705078" xlink:href="#DejaVuSans-69"/>
      <use x="225.488281" xlink:href="#DejaVuSans-63"/>
      <use x="280.46875" xlink:href="#DejaVuSans-65"/>
      <use x="341.992188" xlink:href="#DejaVuSans-50"/>
      <use x="400.544922" xlink:href="#DejaVuSans-72"/>
      <use x="439.408203" xlink:href="#DejaVuSans-6f"/>
      <use x="500.589844" xlink:href="#DejaVuSans-63"/>
      <use x="555.570312" xlink:href="#DejaVuSans-65"/>
      <use x="617.09375" xlink:href="#DejaVuSans-73"/>
      <use x="669.193359" xlink:href="#DejaVuSans-73"/>
      <use x="721.292969" xlink:href="#DejaVuSans-45"/>
      <use x="784.476562" xlink:href="#DejaVuSans-76"/>
      <use x="843.65625" xlink:href="#DejaVuSans-65"/>
      <use x="905.179688" xlink:href="#DejaVuSans-6e"/>
      <use x="968.558594" xlink:href="#DejaVuSans-74"/>
      <use x="1007.767578" xlink:href="#DejaVuSans-73"/>
     </g>
    </g>
   </g>
   <g id="text_11">
    <g clip-path="url(#p302e800dda)">
     <!-- 8 -->
     <g transform="translate(620.250238 348.64403)scale(0.15 -0.15)">
      <use xlink:href="#DejaVuSans-38"/>
     </g>
    </g>
   </g>
   <g id="text_12">
    <g clip-path="url(#p302e800dda)">
     <!-- 4656 -->
     <g transform="translate(41.920743 407.977049)scale(0.15 -0.15)">
      <defs>
       <path d="M 691 4666 
L 3169 4666 
L 3169 4134 
L 1269 4134 
L 1269 2991 
Q 1406 3038 1543 3061 
Q 1681 3084 1819 3084 
Q 2600 3084 3056 2656 
Q 3513 2228 3513 1497 
Q 3513 744 3044 326 
Q 2575 -91 1722 -91 
Q 1428 -91 1123 -41 
Q 819 9 494 109 
L 494 744 
Q 775 591 1075 516 
Q 1375 441 1709 441 
Q 2250 441 2565 725 
Q 2881 1009 2881 1497 
Q 2881 1984 2565 2268 
Q 2250 2553 1709 2553 
Q 1456 2553 1204 2497 
Q 953 2441 691 2322 
L 691 4666 
z
" id="DejaVuSans-35" transform="scale(0.015625)"/>
      </defs>
      <use xlink:href="#DejaVuSans-34"/>
      <use x="63.623047" xlink:href="#DejaVuSans-36"/>
      <use x="127.246094" xlink:href="#DejaVuSans-35"/>
      <use x="190.869141" xlink:href="#DejaVuSans-36"/>
     </g>
    </g>
   </g>
   <g id="text_13">
    <g clip-path="url(#p302e800dda)">
     <!-- 10 -->
     <g transform="translate(35.701705 301.484007)scale(0.15 -0.15)">
      <defs>
       <path d="M 2034 4250 
Q 1547 4250 1301 3770 
Q 1056 3291 1056 2328 
Q 1056 1369 1301 889 
Q 1547 409 2034 409 
Q 2525 409 2770 889 
Q 3016 1369 3016 2328 
Q 3016 3291 2770 3770 
Q 2525 4250 2034 4250 
z
M 2034 4750 
Q 2819 4750 3233 4129 
Q 3647 3509 3647 2328 
Q 3647 1150 3233 529 
Q 2819 -91 2034 -91 
Q 1250 -91 836 529 
Q 422 1150 422 2328 
Q 422 3509 836 4129 
Q 1250 4750 2034 4750 
z
" id="DejaVuSans-30" transform="scale(0.015625)"/>
      </defs>
      <use xlink:href="#DejaVuSans-31"/>
      <use x="63.623047" xlink:href="#DejaVuSans-30"/>
     </g>
    </g>
   </g>
   <g id="text_14">
    <g clip-path="url(#p302e800dda)">
     <!-- 4103 -->
     <g transform="translate(787.067045 36.048153)scale(0.15 -0.15)">
      <defs>
       <path d="M 2597 2516 
Q 3050 2419 3304 2112 
Q 3559 1806 3559 1356 
Q 3559 666 3084 287 
Q 2609 -91 1734 -91 
Q 1441 -91 1130 -33 
Q 819 25 488 141 
L 488 750 
Q 750 597 1062 519 
Q 1375 441 1716 441 
Q 2309 441 2620 675 
Q 2931 909 2931 1356 
Q 2931 1769 2642 2001 
Q 2353 2234 1838 2234 
L 1294 2234 
L 1294 2753 
L 1863 2753 
Q 2328 2753 2575 2939 
Q 2822 3125 2822 3475 
Q 2822 3834 2567 4026 
Q 2313 4219 1838 4219 
Q 1578 4219 1281 4162 
Q 984 4106 628 3988 
L 628 4550 
Q 988 4650 1302 4700 
Q 1616 4750 1894 4750 
Q 2613 4750 3031 4423 
Q 3450 4097 3450 3541 
Q 3450 3153 3228 2886 
Q 3006 2619 2597 2516 
z
" id="DejaVuSans-33" transform="scale(0.015625)"/>
      </defs>
      <use xlink:href="#DejaVuSans-34"/>
      <use x="63.623047" xlink:href="#DejaVuSans-31"/>
      <use x="127.246094" xlink:href="#DejaVuSans-30"/>
      <use x="190.869141" xlink:href="#DejaVuSans-33"/>
     </g>
    </g>
   </g>
   <g id="text_15">
    <g clip-path="url(#p302e800dda)">
     <!-- nan -->
     <g transform="translate(598.650864 530.229972)scale(0.15 -0.15)">
      <use xlink:href="#DejaVuSans-6e"/>
      <use x="63.378906" xlink:href="#DejaVuSans-61"/>
      <use x="124.658203" xlink:href="#DejaVuSans-6e"/>
     </g>
    </g>
   </g>
  </g>
 </g>
 <defs>
  <clipPath id="p302e800dda">
   <rect height="543.6" width="837" x="7.2" y="7.2"/>
  </clipPath>
 </defs>
</svg>
