<?xml version="1.0" encoding="utf-8" standalone="no"?>
<!DOCTYPE svg PUBLIC "-//W3C//DTD SVG 1.1//EN"
  "http://www.w3.org/Graphics/SVG/1.1/DTD/svg11.dtd">
<svg height="558pt" version="1.1" viewBox="0 0 1130.4 558" width="1130.4pt" xmlns="http://www.w3.org/2000/svg" xmlns:xlink="http://www.w3.org/1999/xlink">
 <metadata>
  <rdf:RDF xmlns:cc="http://creativecommons.org/ns#" xmlns:dc="http://purl.org/dc/elements/1.1/" xmlns:rdf="http://www.w3.org/1999/02/22-rdf-syntax-ns#">
   <cc:Work>
    <dc:type rdf:resource="http://purl.org/dc/dcmitype/StillImage"/>
    <dc:date>2021-06-22T22:03:30.278480</dc:date>
    <dc:format>image/svg+xml</dc:format>
    <dc:creator>
     <cc:Agent>
      <dc:title>Matplotlib v3.4.1, https://matplotlib.org/</dc:title>
     </cc:Agent>
    </dc:creator>
   </cc:Work>
  </rdf:RDF>
 </metadata>
 <defs>
  <style type="text/css">*{stroke-linecap:butt;stroke-linejoin:round;}</style>
 </defs>
 <g id="figure_1">
  <g id="patch_1">
   <path d="M 0 558 
L 1130.4 558 
L 1130.4 0 
L 0 0 
z
" style="fill:#ffffff;"/>
  </g>
  <g id="axes_1">
   <g id="LineCollection_1">
    <path clip-path="url(#p2439ab9f83)" d="M 894.157826 480.282332 
L 750.186638 280.336503 
" style="fill:none;stroke:#000000;"/>
    <path clip-path="url(#p2439ab9f83)" d="M 750.186638 280.336503 
L 527.149751 161.315612 
" style="fill:none;stroke:#000000;"/>
    <path clip-path="url(#p2439ab9f83)" d="M 750.186638 280.336503 
L 496.417489 233.791866 
" style="fill:none;stroke:#000000;"/>
    <path clip-path="url(#p2439ab9f83)" d="M 750.186638 280.336503 
L 543.475419 86.900881 
" style="fill:none;stroke:#000000;"/>
    <path clip-path="url(#p2439ab9f83)" d="M 750.186638 280.336503 
L 437.398223 290.937623 
" style="fill:none;stroke:#000000;"/>
    <path clip-path="url(#p2439ab9f83)" d="M 750.186638 280.336503 
L 946.000681 151.356779 
" style="fill:none;stroke:#000000;"/>
    <path clip-path="url(#p2439ab9f83)" d="M 750.186638 280.336503 
L 780.102322 505.5 
" style="fill:none;stroke:#000000;"/>
    <path clip-path="url(#p2439ab9f83)" d="M 750.186638 280.336503 
L 1020.226537 320.831927 
" style="fill:none;stroke:#000000;"/>
    <path clip-path="url(#p2439ab9f83)" d="M 750.186638 280.336503 
L 881.685244 66.741832 
" style="fill:none;stroke:#000000;"/>
    <path clip-path="url(#p2439ab9f83)" d="M 750.186638 280.336503 
L 659.434642 498.560779 
" style="fill:none;stroke:#000000;"/>
    <path clip-path="url(#p2439ab9f83)" d="M 750.186638 280.336503 
L 567.073901 428.803253 
" style="fill:none;stroke:#000000;"/>
    <path clip-path="url(#p2439ab9f83)" d="M 750.186638 280.336503 
L 975.226593 409.844328 
" style="fill:none;stroke:#000000;"/>
    <path clip-path="url(#p2439ab9f83)" d="M 750.186638 280.336503 
L 1030.2 219.88129 
" style="fill:none;stroke:#000000;"/>
    <path clip-path="url(#p2439ab9f83)" d="M 750.186638 280.336503 
L 750.910225 67.372019 
" style="fill:none;stroke:#000000;"/>
    <path clip-path="url(#p2439ab9f83)" d="M 527.149751 161.315612 
L 336.787722 136.269394 
" style="fill:none;stroke:#000000;"/>
    <path clip-path="url(#p2439ab9f83)" d="M 336.787722 136.269394 
L 100.2 52.5 
" style="fill:none;stroke:#000000;"/>
    <path clip-path="url(#p2439ab9f83)" d="M 336.787722 136.269394 
L 496.417489 233.791866 
" style="fill:none;stroke:#000000;"/>
    <path clip-path="url(#p2439ab9f83)" d="M 336.787722 136.269394 
L 543.475419 86.900881 
" style="fill:none;stroke:#000000;"/>
    <path clip-path="url(#p2439ab9f83)" d="M 336.787722 136.269394 
L 437.398223 290.937623 
" style="fill:none;stroke:#000000;"/>
   </g>
   <g id="PathCollection_1">
    <path clip-path="url(#p2439ab9f83)" d="M 894.157826 511.905109 
C 902.544284 511.905109 910.588384 508.573134 916.518506 502.643012 
C 922.448627 496.712891 925.780602 488.668791 925.780602 480.282332 
C 925.780602 471.895874 922.448627 463.851774 916.518506 457.921653 
C 910.588384 451.991531 902.544284 448.659556 894.157826 448.659556 
C 885.771367 448.659556 877.727268 451.991531 871.797146 457.921653 
C 865.867024 463.851774 862.535049 471.895874 862.535049 480.282332 
C 862.535049 488.668791 865.867024 496.712891 871.797146 502.643012 
C 877.727268 508.573134 885.771367 511.905109 894.157826 511.905109 
z
" style="fill:#d3d3d3;stroke:#d3d3d3;"/>
    <path clip-path="url(#p2439ab9f83)" d="M 750.186638 327.770668 
C 762.766326 327.770668 774.832476 322.772705 783.727658 313.877523 
C 792.62284 304.982341 797.620803 292.916191 797.620803 280.336503 
C 797.620803 267.756816 792.62284 255.690666 783.727658 246.795484 
C 774.832476 237.900301 762.766326 232.902338 750.186638 232.902338 
C 737.606951 232.902338 725.540801 237.900301 716.645619 246.795484 
C 707.750436 255.690666 702.752473 267.756816 702.752473 280.336503 
C 702.752473 292.916191 707.750436 304.982341 716.645619 313.877523 
C 725.540801 322.772705 737.606951 327.770668 750.186638 327.770668 
z
" style="fill:#00ff00;stroke:#00ff00;"/>
    <path clip-path="url(#p2439ab9f83)" d="M 527.149751 192.938389 
C 535.536209 192.938389 543.580309 189.606413 549.510431 183.676292 
C 555.440552 177.74617 558.772528 169.70207 558.772528 161.315612 
C 558.772528 152.929154 555.440552 144.885054 549.510431 138.954932 
C 543.580309 133.024811 535.536209 129.692835 527.149751 129.692835 
C 518.763293 129.692835 510.719193 133.024811 504.789071 138.954932 
C 498.85895 144.885054 495.526974 152.929154 495.526974 161.315612 
C 495.526974 169.70207 498.85895 177.74617 504.789071 183.676292 
C 510.719193 189.606413 518.763293 192.938389 527.149751 192.938389 
z
" style="fill:#d3d3d3;stroke:#d3d3d3;"/>
    <path clip-path="url(#p2439ab9f83)" d="M 336.787722 183.703559 
C 349.36741 183.703559 361.43356 178.705596 370.328742 169.810414 
C 379.223925 160.915232 384.221887 148.849082 384.221887 136.269394 
C 384.221887 123.689707 379.223925 111.623557 370.328742 102.728375 
C 361.43356 93.833192 349.36741 88.835229 336.787722 88.835229 
C 324.208035 88.835229 312.141885 93.833192 303.246703 102.728375 
C 294.35152 111.623557 289.353558 123.689707 289.353558 136.269394 
C 289.353558 148.849082 294.35152 160.915232 303.246703 169.810414 
C 312.141885 178.705596 324.208035 183.703559 336.787722 183.703559 
z
" style="fill:#00ff00;stroke:#00ff00;"/>
    <path clip-path="url(#p2439ab9f83)" d="M 100.2 84.122777 
C 108.586458 84.122777 116.630558 80.790801 122.56068 74.86068 
C 128.490801 68.930558 131.822777 60.886458 131.822777 52.5 
C 131.822777 44.113542 128.490801 36.069442 122.56068 30.13932 
C 116.630558 24.209199 108.586458 20.877223 100.2 20.877223 
C 91.813542 20.877223 83.769442 24.209199 77.83932 30.13932 
C 71.909199 36.069442 68.577223 44.113542 68.577223 52.5 
C 68.577223 60.886458 71.909199 68.930558 77.83932 74.86068 
C 83.769442 80.790801 91.813542 84.122777 100.2 84.122777 
z
" style="fill:#d3d3d3;stroke:#d3d3d3;"/>
    <path clip-path="url(#p2439ab9f83)" d="M 496.417489 265.414643 
C 504.803948 265.414643 512.848047 262.082668 518.778169 256.152546 
C 524.708291 250.222425 528.040266 242.178325 528.040266 233.791866 
C 528.040266 225.405408 524.708291 217.361308 518.778169 211.431187 
C 512.848047 205.501065 504.803948 202.16909 496.417489 202.16909 
C 488.031031 202.16909 479.986931 205.501065 474.056809 211.431187 
C 468.126688 217.361308 464.794713 225.405408 464.794713 233.791866 
C 464.794713 242.178325 468.126688 250.222425 474.056809 256.152546 
C 479.986931 262.082668 488.031031 265.414643 496.417489 265.414643 
z
" style="fill:#d3d3d3;stroke:#d3d3d3;"/>
    <path clip-path="url(#p2439ab9f83)" d="M 543.475419 118.523658 
C 551.861877 118.523658 559.905977 115.191682 565.836099 109.261561 
C 571.76622 103.331439 575.098196 95.287339 575.098196 86.900881 
C 575.098196 78.514423 571.76622 70.470323 565.836099 64.540201 
C 559.905977 58.61008 551.861877 55.278104 543.475419 55.278104 
C 535.088961 55.278104 527.044861 58.61008 521.114739 64.540201 
C 515.184618 70.470323 511.852642 78.514423 511.852642 86.900881 
C 511.852642 95.287339 515.184618 103.331439 521.114739 109.261561 
C 527.044861 115.191682 535.088961 118.523658 543.475419 118.523658 
z
" style="fill:#d3d3d3;stroke:#d3d3d3;"/>
    <path clip-path="url(#p2439ab9f83)" d="M 437.398223 322.560399 
C 445.784681 322.560399 453.828781 319.228424 459.758903 313.298303 
C 465.689024 307.368181 469.021 299.324081 469.021 290.937623 
C 469.021 282.551165 465.689024 274.507065 459.758903 268.576943 
C 453.828781 262.646822 445.784681 259.314846 437.398223 259.314846 
C 429.011765 259.314846 420.967665 262.646822 415.037543 268.576943 
C 409.107422 274.507065 405.775446 282.551165 405.775446 290.937623 
C 405.775446 299.324081 409.107422 307.368181 415.037543 313.298303 
C 420.967665 319.228424 429.011765 322.560399 437.398223 322.560399 
z
" style="fill:#d3d3d3;stroke:#d3d3d3;"/>
    <path clip-path="url(#p2439ab9f83)" d="M 946.000681 182.979556 
C 954.387139 182.979556 962.431239 179.64758 968.36136 173.717459 
C 974.291482 167.787337 977.623457 159.743237 977.623457 151.356779 
C 977.623457 142.970321 974.291482 134.926221 968.36136 128.996099 
C 962.431239 123.065978 954.387139 119.734002 946.000681 119.734002 
C 937.614222 119.734002 929.570122 123.065978 923.640001 128.996099 
C 917.709879 134.926221 914.377904 142.970321 914.377904 151.356779 
C 914.377904 159.743237 917.709879 167.787337 923.640001 173.717459 
C 929.570122 179.64758 937.614222 182.979556 946.000681 182.979556 
z
" style="fill:#d3d3d3;stroke:#d3d3d3;"/>
    <path clip-path="url(#p2439ab9f83)" d="M 780.102322 537.122777 
C 788.48878 537.122777 796.53288 533.790801 802.463002 527.86068 
C 808.393123 521.930558 811.725098 513.886458 811.725098 505.5 
C 811.725098 497.113542 808.393123 489.069442 802.463002 483.13932 
C 796.53288 477.209199 788.48878 473.877223 780.102322 473.877223 
C 771.715863 473.877223 763.671764 477.209199 757.741642 483.13932 
C 751.81152 489.069442 748.479545 497.113542 748.479545 505.5 
C 748.479545 513.886458 751.81152 521.930558 757.741642 527.86068 
C 763.671764 533.790801 771.715863 537.122777 780.102322 537.122777 
z
" style="fill:#d3d3d3;stroke:#d3d3d3;"/>
    <path clip-path="url(#p2439ab9f83)" d="M 1020.226537 352.454704 
C 1028.612995 352.454704 1036.657095 349.122729 1042.587216 343.192607 
C 1048.517338 337.262485 1051.849313 329.218386 1051.849313 320.831927 
C 1051.849313 312.445469 1048.517338 304.401369 1042.587216 298.471248 
C 1036.657095 292.541126 1028.612995 289.209151 1020.226537 289.209151 
C 1011.840078 289.209151 1003.795978 292.541126 997.865857 298.471248 
C 991.935735 304.401369 988.60376 312.445469 988.60376 320.831927 
C 988.60376 329.218386 991.935735 337.262485 997.865857 343.192607 
C 1003.795978 349.122729 1011.840078 352.454704 1020.226537 352.454704 
z
" style="fill:#d3d3d3;stroke:#d3d3d3;"/>
    <path clip-path="url(#p2439ab9f83)" d="M 881.685244 98.364609 
C 890.071702 98.364609 898.115802 95.032633 904.045924 89.102512 
C 909.976045 83.17239 913.30802 75.12829 913.30802 66.741832 
C 913.30802 58.355374 909.976045 50.311274 904.045924 44.381152 
C 898.115802 38.451031 890.071702 35.119055 881.685244 35.119055 
C 873.298785 35.119055 865.254686 38.451031 859.324564 44.381152 
C 853.394442 50.311274 850.062467 58.355374 850.062467 66.741832 
C 850.062467 75.12829 853.394442 83.17239 859.324564 89.102512 
C 865.254686 95.032633 873.298785 98.364609 881.685244 98.364609 
z
" style="fill:#d3d3d3;stroke:#d3d3d3;"/>
    <path clip-path="url(#p2439ab9f83)" d="M 659.434642 530.183555 
C 667.8211 530.183555 675.8652 526.85158 681.795322 520.921459 
C 687.725443 514.991337 691.057418 506.947237 691.057418 498.560779 
C 691.057418 490.17432 687.725443 482.130221 681.795322 476.200099 
C 675.8652 470.269977 667.8211 466.938002 659.434642 466.938002 
C 651.048184 466.938002 643.004084 470.269977 637.073962 476.200099 
C 631.143841 482.130221 627.811865 490.17432 627.811865 498.560779 
C 627.811865 506.947237 631.143841 514.991337 637.073962 520.921459 
C 643.004084 526.85158 651.048184 530.183555 659.434642 530.183555 
z
" style="fill:#d3d3d3;stroke:#d3d3d3;"/>
    <path clip-path="url(#p2439ab9f83)" d="M 567.073901 460.42603 
C 575.460359 460.42603 583.504459 457.094055 589.43458 451.163933 
C 595.364702 445.233811 598.696677 437.189712 598.696677 428.803253 
C 598.696677 420.416795 595.364702 412.372695 589.43458 406.442573 
C 583.504459 400.512452 575.460359 397.180477 567.073901 397.180477 
C 558.687442 397.180477 550.643343 400.512452 544.713221 406.442573 
C 538.783099 412.372695 535.451124 420.416795 535.451124 428.803253 
C 535.451124 437.189712 538.783099 445.233811 544.713221 451.163933 
C 550.643343 457.094055 558.687442 460.42603 567.073901 460.42603 
z
" style="fill:#d3d3d3;stroke:#d3d3d3;"/>
    <path clip-path="url(#p2439ab9f83)" d="M 975.226593 441.467104 
C 983.613051 441.467104 991.657151 438.135129 997.587273 432.205007 
C 1003.517394 426.274886 1006.849369 418.230786 1006.849369 409.844328 
C 1006.849369 401.457869 1003.517394 393.413769 997.587273 387.483648 
C 991.657151 381.553526 983.613051 378.221551 975.226593 378.221551 
C 966.840134 378.221551 958.796035 381.553526 952.865913 387.483648 
C 946.935791 393.413769 943.603816 401.457869 943.603816 409.844328 
C 943.603816 418.230786 946.935791 426.274886 952.865913 432.205007 
C 958.796035 438.135129 966.840134 441.467104 975.226593 441.467104 
z
" style="fill:#d3d3d3;stroke:#d3d3d3;"/>
    <path clip-path="url(#p2439ab9f83)" d="M 1030.2 251.504067 
C 1038.586458 251.504067 1046.630558 248.172091 1052.56068 242.24197 
C 1058.490801 236.311848 1061.822777 228.267748 1061.822777 219.88129 
C 1061.822777 211.494832 1058.490801 203.450732 1052.56068 197.52061 
C 1046.630558 191.590489 1038.586458 188.258513 1030.2 188.258513 
C 1021.813542 188.258513 1013.769442 191.590489 1007.83932 197.52061 
C 1001.909199 203.450732 998.577223 211.494832 998.577223 219.88129 
C 998.577223 228.267748 1001.909199 236.311848 1007.83932 242.24197 
C 1013.769442 248.172091 1021.813542 251.504067 1030.2 251.504067 
z
" style="fill:#d3d3d3;stroke:#d3d3d3;"/>
    <path clip-path="url(#p2439ab9f83)" d="M 750.910225 98.994796 
C 759.296683 98.994796 767.340783 95.662821 773.270904 89.732699 
C 779.201026 83.802577 782.533001 75.758478 782.533001 67.372019 
C 782.533001 58.985561 779.201026 50.941461 773.270904 45.011339 
C 767.340783 39.081218 759.296683 35.749243 750.910225 35.749243 
C 742.523766 35.749243 734.479666 39.081218 728.549545 45.011339 
C 722.619423 50.941461 719.287448 58.985561 719.287448 67.372019 
C 719.287448 75.758478 722.619423 83.802577 728.549545 89.732699 
C 734.479666 95.662821 742.523766 98.994796 750.910225 98.994796 
z
" style="fill:#d3d3d3;stroke:#d3d3d3;"/>
   </g>
   <g id="text_1">
    <g clip-path="url(#p2439ab9f83)">
     <!-- 4618 -->
     <g transform="translate(876.342826 484.145457)scale(0.14 -0.14)">
      <defs>
       <path d="M 2419 4116 
L 825 1625 
L 2419 1625 
L 2419 4116 
z
M 2253 4666 
L 3047 4666 
L 3047 1625 
L 3713 1625 
L 3713 1100 
L 3047 1100 
L 3047 0 
L 2419 0 
L 2419 1100 
L 313 1100 
L 313 1709 
L 2253 4666 
z
" id="DejaVuSans-34" transform="scale(0.015625)"/>
       <path d="M 2113 2584 
Q 1688 2584 1439 2293 
Q 1191 2003 1191 1497 
Q 1191 994 1439 701 
Q 1688 409 2113 409 
Q 2538 409 2786 701 
Q 3034 994 3034 1497 
Q 3034 2003 2786 2293 
Q 2538 2584 2113 2584 
z
M 3366 4563 
L 3366 3988 
Q 3128 4100 2886 4159 
Q 2644 4219 2406 4219 
Q 1781 4219 1451 3797 
Q 1122 3375 1075 2522 
Q 1259 2794 1537 2939 
Q 1816 3084 2150 3084 
Q 2853 3084 3261 2657 
Q 3669 2231 3669 1497 
Q 3669 778 3244 343 
Q 2819 -91 2113 -91 
Q 1303 -91 875 529 
Q 447 1150 447 2328 
Q 447 3434 972 4092 
Q 1497 4750 2381 4750 
Q 2619 4750 2861 4703 
Q 3103 4656 3366 4563 
z
" id="DejaVuSans-36" transform="scale(0.015625)"/>
       <path d="M 794 531 
L 1825 531 
L 1825 4091 
L 703 3866 
L 703 4441 
L 1819 4666 
L 2450 4666 
L 2450 531 
L 3481 531 
L 3481 0 
L 794 0 
L 794 531 
z
" id="DejaVuSans-31" transform="scale(0.015625)"/>
       <path d="M 2034 2216 
Q 1584 2216 1326 1975 
Q 1069 1734 1069 1313 
Q 1069 891 1326 650 
Q 1584 409 2034 409 
Q 2484 409 2743 651 
Q 3003 894 3003 1313 
Q 3003 1734 2745 1975 
Q 2488 2216 2034 2216 
z
M 1403 2484 
Q 997 2584 770 2862 
Q 544 3141 544 3541 
Q 544 4100 942 4425 
Q 1341 4750 2034 4750 
Q 2731 4750 3128 4425 
Q 3525 4100 3525 3541 
Q 3525 3141 3298 2862 
Q 3072 2584 2669 2484 
Q 3125 2378 3379 2068 
Q 3634 1759 3634 1313 
Q 3634 634 3220 271 
Q 2806 -91 2034 -91 
Q 1263 -91 848 271 
Q 434 634 434 1313 
Q 434 1759 690 2068 
Q 947 2378 1403 2484 
z
M 1172 3481 
Q 1172 3119 1398 2916 
Q 1625 2713 2034 2713 
Q 2441 2713 2670 2916 
Q 2900 3119 2900 3481 
Q 2900 3844 2670 4047 
Q 2441 4250 2034 4250 
Q 1625 4250 1398 4047 
Q 1172 3844 1172 3481 
z
" id="DejaVuSans-38" transform="scale(0.015625)"/>
      </defs>
      <use xlink:href="#DejaVuSans-34"/>
      <use x="63.623047" xlink:href="#DejaVuSans-36"/>
      <use x="127.246094" xlink:href="#DejaVuSans-31"/>
      <use x="190.869141" xlink:href="#DejaVuSans-38"/>
     </g>
    </g>
   </g>
   <g id="text_2">
    <g clip-path="url(#p2439ab9f83)">
     <!-- TargetLogonId -->
     <g transform="translate(700.792888 284.199628)scale(0.14 -0.14)">
      <defs>
       <path d="M -19 4666 
L 3928 4666 
L 3928 4134 
L 2272 4134 
L 2272 0 
L 1638 0 
L 1638 4134 
L -19 4134 
L -19 4666 
z
" id="DejaVuSans-54" transform="scale(0.015625)"/>
       <path d="M 2194 1759 
Q 1497 1759 1228 1600 
Q 959 1441 959 1056 
Q 959 750 1161 570 
Q 1363 391 1709 391 
Q 2188 391 2477 730 
Q 2766 1069 2766 1631 
L 2766 1759 
L 2194 1759 
z
M 3341 1997 
L 3341 0 
L 2766 0 
L 2766 531 
Q 2569 213 2275 61 
Q 1981 -91 1556 -91 
Q 1019 -91 701 211 
Q 384 513 384 1019 
Q 384 1609 779 1909 
Q 1175 2209 1959 2209 
L 2766 2209 
L 2766 2266 
Q 2766 2663 2505 2880 
Q 2244 3097 1772 3097 
Q 1472 3097 1187 3025 
Q 903 2953 641 2809 
L 641 3341 
Q 956 3463 1253 3523 
Q 1550 3584 1831 3584 
Q 2591 3584 2966 3190 
Q 3341 2797 3341 1997 
z
" id="DejaVuSans-61" transform="scale(0.015625)"/>
       <path d="M 2631 2963 
Q 2534 3019 2420 3045 
Q 2306 3072 2169 3072 
Q 1681 3072 1420 2755 
Q 1159 2438 1159 1844 
L 1159 0 
L 581 0 
L 581 3500 
L 1159 3500 
L 1159 2956 
Q 1341 3275 1631 3429 
Q 1922 3584 2338 3584 
Q 2397 3584 2469 3576 
Q 2541 3569 2628 3553 
L 2631 2963 
z
" id="DejaVuSans-72" transform="scale(0.015625)"/>
       <path d="M 2906 1791 
Q 2906 2416 2648 2759 
Q 2391 3103 1925 3103 
Q 1463 3103 1205 2759 
Q 947 2416 947 1791 
Q 947 1169 1205 825 
Q 1463 481 1925 481 
Q 2391 481 2648 825 
Q 2906 1169 2906 1791 
z
M 3481 434 
Q 3481 -459 3084 -895 
Q 2688 -1331 1869 -1331 
Q 1566 -1331 1297 -1286 
Q 1028 -1241 775 -1147 
L 775 -588 
Q 1028 -725 1275 -790 
Q 1522 -856 1778 -856 
Q 2344 -856 2625 -561 
Q 2906 -266 2906 331 
L 2906 616 
Q 2728 306 2450 153 
Q 2172 0 1784 0 
Q 1141 0 747 490 
Q 353 981 353 1791 
Q 353 2603 747 3093 
Q 1141 3584 1784 3584 
Q 2172 3584 2450 3431 
Q 2728 3278 2906 2969 
L 2906 3500 
L 3481 3500 
L 3481 434 
z
" id="DejaVuSans-67" transform="scale(0.015625)"/>
       <path d="M 3597 1894 
L 3597 1613 
L 953 1613 
Q 991 1019 1311 708 
Q 1631 397 2203 397 
Q 2534 397 2845 478 
Q 3156 559 3463 722 
L 3463 178 
Q 3153 47 2828 -22 
Q 2503 -91 2169 -91 
Q 1331 -91 842 396 
Q 353 884 353 1716 
Q 353 2575 817 3079 
Q 1281 3584 2069 3584 
Q 2775 3584 3186 3129 
Q 3597 2675 3597 1894 
z
M 3022 2063 
Q 3016 2534 2758 2815 
Q 2500 3097 2075 3097 
Q 1594 3097 1305 2825 
Q 1016 2553 972 2059 
L 3022 2063 
z
" id="DejaVuSans-65" transform="scale(0.015625)"/>
       <path d="M 1172 4494 
L 1172 3500 
L 2356 3500 
L 2356 3053 
L 1172 3053 
L 1172 1153 
Q 1172 725 1289 603 
Q 1406 481 1766 481 
L 2356 481 
L 2356 0 
L 1766 0 
Q 1100 0 847 248 
Q 594 497 594 1153 
L 594 3053 
L 172 3053 
L 172 3500 
L 594 3500 
L 594 4494 
L 1172 4494 
z
" id="DejaVuSans-74" transform="scale(0.015625)"/>
       <path d="M 628 4666 
L 1259 4666 
L 1259 531 
L 3531 531 
L 3531 0 
L 628 0 
L 628 4666 
z
" id="DejaVuSans-4c" transform="scale(0.015625)"/>
       <path d="M 1959 3097 
Q 1497 3097 1228 2736 
Q 959 2375 959 1747 
Q 959 1119 1226 758 
Q 1494 397 1959 397 
Q 2419 397 2687 759 
Q 2956 1122 2956 1747 
Q 2956 2369 2687 2733 
Q 2419 3097 1959 3097 
z
M 1959 3584 
Q 2709 3584 3137 3096 
Q 3566 2609 3566 1747 
Q 3566 888 3137 398 
Q 2709 -91 1959 -91 
Q 1206 -91 779 398 
Q 353 888 353 1747 
Q 353 2609 779 3096 
Q 1206 3584 1959 3584 
z
" id="DejaVuSans-6f" transform="scale(0.015625)"/>
       <path d="M 3513 2113 
L 3513 0 
L 2938 0 
L 2938 2094 
Q 2938 2591 2744 2837 
Q 2550 3084 2163 3084 
Q 1697 3084 1428 2787 
Q 1159 2491 1159 1978 
L 1159 0 
L 581 0 
L 581 3500 
L 1159 3500 
L 1159 2956 
Q 1366 3272 1645 3428 
Q 1925 3584 2291 3584 
Q 2894 3584 3203 3211 
Q 3513 2838 3513 2113 
z
" id="DejaVuSans-6e" transform="scale(0.015625)"/>
       <path d="M 628 4666 
L 1259 4666 
L 1259 0 
L 628 0 
L 628 4666 
z
" id="DejaVuSans-49" transform="scale(0.015625)"/>
       <path d="M 2906 2969 
L 2906 4863 
L 3481 4863 
L 3481 0 
L 2906 0 
L 2906 525 
Q 2725 213 2448 61 
Q 2172 -91 1784 -91 
Q 1150 -91 751 415 
Q 353 922 353 1747 
Q 353 2572 751 3078 
Q 1150 3584 1784 3584 
Q 2172 3584 2448 3432 
Q 2725 3281 2906 2969 
z
M 947 1747 
Q 947 1113 1208 752 
Q 1469 391 1925 391 
Q 2381 391 2643 752 
Q 2906 1113 2906 1747 
Q 2906 2381 2643 2742 
Q 2381 3103 1925 3103 
Q 1469 3103 1208 2742 
Q 947 2381 947 1747 
z
" id="DejaVuSans-64" transform="scale(0.015625)"/>
      </defs>
      <use xlink:href="#DejaVuSans-54"/>
      <use x="44.583984" xlink:href="#DejaVuSans-61"/>
      <use x="105.863281" xlink:href="#DejaVuSans-72"/>
      <use x="145.226562" xlink:href="#DejaVuSans-67"/>
      <use x="208.703125" xlink:href="#DejaVuSans-65"/>
      <use x="270.226562" xlink:href="#DejaVuSans-74"/>
      <use x="309.435547" xlink:href="#DejaVuSans-4c"/>
      <use x="363.398438" xlink:href="#DejaVuSans-6f"/>
      <use x="424.580078" xlink:href="#DejaVuSans-67"/>
      <use x="488.056641" xlink:href="#DejaVuSans-6f"/>
      <use x="549.238281" xlink:href="#DejaVuSans-6e"/>
      <use x="612.617188" xlink:href="#DejaVuSans-49"/>
      <use x="642.109375" xlink:href="#DejaVuSans-64"/>
     </g>
    </g>
   </g>
   <g id="text_3">
    <g clip-path="url(#p2439ab9f83)">
     <!-- 4624 -->
     <g transform="translate(509.334751 165.178737)scale(0.14 -0.14)">
      <defs>
       <path d="M 1228 531 
L 3431 531 
L 3431 0 
L 469 0 
L 469 531 
Q 828 903 1448 1529 
Q 2069 2156 2228 2338 
Q 2531 2678 2651 2914 
Q 2772 3150 2772 3378 
Q 2772 3750 2511 3984 
Q 2250 4219 1831 4219 
Q 1534 4219 1204 4116 
Q 875 4013 500 3803 
L 500 4441 
Q 881 4594 1212 4672 
Q 1544 4750 1819 4750 
Q 2544 4750 2975 4387 
Q 3406 4025 3406 3419 
Q 3406 3131 3298 2873 
Q 3191 2616 2906 2266 
Q 2828 2175 2409 1742 
Q 1991 1309 1228 531 
z
" id="DejaVuSans-32" transform="scale(0.015625)"/>
      </defs>
      <use xlink:href="#DejaVuSans-34"/>
      <use x="63.623047" xlink:href="#DejaVuSans-36"/>
      <use x="127.246094" xlink:href="#DejaVuSans-32"/>
      <use x="190.869141" xlink:href="#DejaVuSans-34"/>
     </g>
    </g>
   </g>
   <g id="text_4">
    <g clip-path="url(#p2439ab9f83)">
     <!-- LogonType -->
     <g transform="translate(299.487566 140.132519)scale(0.14 -0.14)">
      <defs>
       <path d="M 2059 -325 
Q 1816 -950 1584 -1140 
Q 1353 -1331 966 -1331 
L 506 -1331 
L 506 -850 
L 844 -850 
Q 1081 -850 1212 -737 
Q 1344 -625 1503 -206 
L 1606 56 
L 191 3500 
L 800 3500 
L 1894 763 
L 2988 3500 
L 3597 3500 
L 2059 -325 
z
" id="DejaVuSans-79" transform="scale(0.015625)"/>
       <path d="M 1159 525 
L 1159 -1331 
L 581 -1331 
L 581 3500 
L 1159 3500 
L 1159 2969 
Q 1341 3281 1617 3432 
Q 1894 3584 2278 3584 
Q 2916 3584 3314 3078 
Q 3713 2572 3713 1747 
Q 3713 922 3314 415 
Q 2916 -91 2278 -91 
Q 1894 -91 1617 61 
Q 1341 213 1159 525 
z
M 3116 1747 
Q 3116 2381 2855 2742 
Q 2594 3103 2138 3103 
Q 1681 3103 1420 2742 
Q 1159 2381 1159 1747 
Q 1159 1113 1420 752 
Q 1681 391 2138 391 
Q 2594 391 2855 752 
Q 3116 1113 3116 1747 
z
" id="DejaVuSans-70" transform="scale(0.015625)"/>
      </defs>
      <use xlink:href="#DejaVuSans-4c"/>
      <use x="53.962891" xlink:href="#DejaVuSans-6f"/>
      <use x="115.144531" xlink:href="#DejaVuSans-67"/>
      <use x="178.621094" xlink:href="#DejaVuSans-6f"/>
      <use x="239.802734" xlink:href="#DejaVuSans-6e"/>
      <use x="303.181641" xlink:href="#DejaVuSans-54"/>
      <use x="348.640625" xlink:href="#DejaVuSans-79"/>
      <use x="407.820312" xlink:href="#DejaVuSans-70"/>
      <use x="471.296875" xlink:href="#DejaVuSans-65"/>
     </g>
    </g>
   </g>
   <g id="text_5">
    <g clip-path="url(#p2439ab9f83)">
     <!-- 4625 -->
     <g transform="translate(82.385 56.363125)scale(0.14 -0.14)">
      <defs>
       <path d="M 691 4666 
L 3169 4666 
L 3169 4134 
L 1269 4134 
L 1269 2991 
Q 1406 3038 1543 3061 
Q 1681 3084 1819 3084 
Q 2600 3084 3056 2656 
Q 3513 2228 3513 1497 
Q 3513 744 3044 326 
Q 2575 -91 1722 -91 
Q 1428 -91 1123 -41 
Q 819 9 494 109 
L 494 744 
Q 775 591 1075 516 
Q 1375 441 1709 441 
Q 2250 441 2565 725 
Q 2881 1009 2881 1497 
Q 2881 1984 2565 2268 
Q 2250 2553 1709 2553 
Q 1456 2553 1204 2497 
Q 953 2441 691 2322 
L 691 4666 
z
" id="DejaVuSans-35" transform="scale(0.015625)"/>
      </defs>
      <use xlink:href="#DejaVuSans-34"/>
      <use x="63.623047" xlink:href="#DejaVuSans-36"/>
      <use x="127.246094" xlink:href="#DejaVuSans-32"/>
      <use x="190.869141" xlink:href="#DejaVuSans-35"/>
     </g>
    </g>
   </g>
   <g id="text_6">
    <g clip-path="url(#p2439ab9f83)">
     <!-- 4626 -->
     <g transform="translate(478.602489 237.654991)scale(0.14 -0.14)">
      <use xlink:href="#DejaVuSans-34"/>
      <use x="63.623047" xlink:href="#DejaVuSans-36"/>
      <use x="127.246094" xlink:href="#DejaVuSans-32"/>
      <use x="190.869141" xlink:href="#DejaVuSans-36"/>
     </g>
    </g>
   </g>
   <g id="text_7">
    <g clip-path="url(#p2439ab9f83)">
     <!-- 4627 -->
     <g transform="translate(525.660419 90.764006)scale(0.14 -0.14)">
      <defs>
       <path d="M 525 4666 
L 3525 4666 
L 3525 4397 
L 1831 0 
L 1172 0 
L 2766 4134 
L 525 4134 
L 525 4666 
z
" id="DejaVuSans-37" transform="scale(0.015625)"/>
      </defs>
      <use xlink:href="#DejaVuSans-34"/>
      <use x="63.623047" xlink:href="#DejaVuSans-36"/>
      <use x="127.246094" xlink:href="#DejaVuSans-32"/>
      <use x="190.869141" xlink:href="#DejaVuSans-37"/>
     </g>
    </g>
   </g>
   <g id="text_8">
    <g clip-path="url(#p2439ab9f83)">
     <!-- 4634 -->
     <g transform="translate(419.583223 294.800748)scale(0.14 -0.14)">
      <defs>
       <path d="M 2597 2516 
Q 3050 2419 3304 2112 
Q 3559 1806 3559 1356 
Q 3559 666 3084 287 
Q 2609 -91 1734 -91 
Q 1441 -91 1130 -33 
Q 819 25 488 141 
L 488 750 
Q 750 597 1062 519 
Q 1375 441 1716 441 
Q 2309 441 2620 675 
Q 2931 909 2931 1356 
Q 2931 1769 2642 2001 
Q 2353 2234 1838 2234 
L 1294 2234 
L 1294 2753 
L 1863 2753 
Q 2328 2753 2575 2939 
Q 2822 3125 2822 3475 
Q 2822 3834 2567 4026 
Q 2313 4219 1838 4219 
Q 1578 4219 1281 4162 
Q 984 4106 628 3988 
L 628 4550 
Q 988 4650 1302 4700 
Q 1616 4750 1894 4750 
Q 2613 4750 3031 4423 
Q 3450 4097 3450 3541 
Q 3450 3153 3228 2886 
Q 3006 2619 2597 2516 
z
" id="DejaVuSans-33" transform="scale(0.015625)"/>
      </defs>
      <use xlink:href="#DejaVuSans-34"/>
      <use x="63.623047" xlink:href="#DejaVuSans-36"/>
      <use x="127.246094" xlink:href="#DejaVuSans-33"/>
      <use x="190.869141" xlink:href="#DejaVuSans-34"/>
     </g>
    </g>
   </g>
   <g id="text_9">
    <g clip-path="url(#p2439ab9f83)">
     <!-- 4647 -->
     <g transform="translate(928.185681 155.219904)scale(0.14 -0.14)">
      <use xlink:href="#DejaVuSans-34"/>
      <use x="63.623047" xlink:href="#DejaVuSans-36"/>
      <use x="127.246094" xlink:href="#DejaVuSans-34"/>
      <use x="190.869141" xlink:href="#DejaVuSans-37"/>
     </g>
    </g>
   </g>
   <g id="text_10">
    <g clip-path="url(#p2439ab9f83)">
     <!-- 4688 -->
     <g transform="translate(762.287322 509.363125)scale(0.14 -0.14)">
      <use xlink:href="#DejaVuSans-34"/>
      <use x="63.623047" xlink:href="#DejaVuSans-36"/>
      <use x="127.246094" xlink:href="#DejaVuSans-38"/>
      <use x="190.869141" xlink:href="#DejaVuSans-38"/>
     </g>
    </g>
   </g>
   <g id="text_11">
    <g clip-path="url(#p2439ab9f83)">
     <!-- 4696 -->
     <g transform="translate(1002.411537 324.695052)scale(0.14 -0.14)">
      <defs>
       <path d="M 703 97 
L 703 672 
Q 941 559 1184 500 
Q 1428 441 1663 441 
Q 2288 441 2617 861 
Q 2947 1281 2994 2138 
Q 2813 1869 2534 1725 
Q 2256 1581 1919 1581 
Q 1219 1581 811 2004 
Q 403 2428 403 3163 
Q 403 3881 828 4315 
Q 1253 4750 1959 4750 
Q 2769 4750 3195 4129 
Q 3622 3509 3622 2328 
Q 3622 1225 3098 567 
Q 2575 -91 1691 -91 
Q 1453 -91 1209 -44 
Q 966 3 703 97 
z
M 1959 2075 
Q 2384 2075 2632 2365 
Q 2881 2656 2881 3163 
Q 2881 3666 2632 3958 
Q 2384 4250 1959 4250 
Q 1534 4250 1286 3958 
Q 1038 3666 1038 3163 
Q 1038 2656 1286 2365 
Q 1534 2075 1959 2075 
z
" id="DejaVuSans-39" transform="scale(0.015625)"/>
      </defs>
      <use xlink:href="#DejaVuSans-34"/>
      <use x="63.623047" xlink:href="#DejaVuSans-36"/>
      <use x="127.246094" xlink:href="#DejaVuSans-39"/>
      <use x="190.869141" xlink:href="#DejaVuSans-36"/>
     </g>
    </g>
   </g>
   <g id="text_12">
    <g clip-path="url(#p2439ab9f83)">
     <!-- 4703 -->
     <g transform="translate(863.870244 70.604957)scale(0.14 -0.14)">
      <defs>
       <path d="M 2034 4250 
Q 1547 4250 1301 3770 
Q 1056 3291 1056 2328 
Q 1056 1369 1301 889 
Q 1547 409 2034 409 
Q 2525 409 2770 889 
Q 3016 1369 3016 2328 
Q 3016 3291 2770 3770 
Q 2525 4250 2034 4250 
z
M 2034 4750 
Q 2819 4750 3233 4129 
Q 3647 3509 3647 2328 
Q 3647 1150 3233 529 
Q 2819 -91 2034 -91 
Q 1250 -91 836 529 
Q 422 1150 422 2328 
Q 422 3509 836 4129 
Q 1250 4750 2034 4750 
z
" id="DejaVuSans-30" transform="scale(0.015625)"/>
      </defs>
      <use xlink:href="#DejaVuSans-34"/>
      <use x="63.623047" xlink:href="#DejaVuSans-37"/>
      <use x="127.246094" xlink:href="#DejaVuSans-30"/>
      <use x="190.869141" xlink:href="#DejaVuSans-33"/>
     </g>
    </g>
   </g>
   <g id="text_13">
    <g clip-path="url(#p2439ab9f83)">
     <!-- 4800 -->
     <g transform="translate(641.619642 502.423904)scale(0.14 -0.14)">
      <use xlink:href="#DejaVuSans-34"/>
      <use x="63.623047" xlink:href="#DejaVuSans-38"/>
      <use x="127.246094" xlink:href="#DejaVuSans-30"/>
      <use x="190.869141" xlink:href="#DejaVuSans-30"/>
     </g>
    </g>
   </g>
   <g id="text_14">
    <g clip-path="url(#p2439ab9f83)">
     <!-- 4801 -->
     <g transform="translate(549.258901 432.666378)scale(0.14 -0.14)">
      <use xlink:href="#DejaVuSans-34"/>
      <use x="63.623047" xlink:href="#DejaVuSans-38"/>
      <use x="127.246094" xlink:href="#DejaVuSans-30"/>
      <use x="190.869141" xlink:href="#DejaVuSans-31"/>
     </g>
    </g>
   </g>
   <g id="text_15">
    <g clip-path="url(#p2439ab9f83)">
     <!-- 4802 -->
     <g transform="translate(957.411593 413.707453)scale(0.14 -0.14)">
      <use xlink:href="#DejaVuSans-34"/>
      <use x="63.623047" xlink:href="#DejaVuSans-38"/>
      <use x="127.246094" xlink:href="#DejaVuSans-30"/>
      <use x="190.869141" xlink:href="#DejaVuSans-32"/>
     </g>
    </g>
   </g>
   <g id="text_16">
    <g clip-path="url(#p2439ab9f83)">
     <!-- 4803 -->
     <g transform="translate(1012.385 223.744415)scale(0.14 -0.14)">
      <use xlink:href="#DejaVuSans-34"/>
      <use x="63.623047" xlink:href="#DejaVuSans-38"/>
      <use x="127.246094" xlink:href="#DejaVuSans-30"/>
      <use x="190.869141" xlink:href="#DejaVuSans-33"/>
     </g>
    </g>
   </g>
   <g id="text_17">
    <g clip-path="url(#p2439ab9f83)">
     <!-- 4964 -->
     <g transform="translate(733.095225 71.235144)scale(0.14 -0.14)">
      <use xlink:href="#DejaVuSans-34"/>
      <use x="63.623047" xlink:href="#DejaVuSans-39"/>
      <use x="127.246094" xlink:href="#DejaVuSans-36"/>
      <use x="190.869141" xlink:href="#DejaVuSans-34"/>
     </g>
    </g>
   </g>
   <g id="legend_1">
    <g id="patch_2">
     <path d="M 1007.319219 55.763125 
L 1114.1 55.763125 
Q 1116.7 55.763125 1116.7 53.163125 
L 1116.7 16.3 
Q 1116.7 13.7 1114.1 13.7 
L 1007.319219 13.7 
Q 1004.719219 13.7 1004.719219 16.3 
L 1004.719219 53.163125 
Q 1004.719219 55.763125 1007.319219 55.763125 
z
" style="fill:#ffffff;opacity:0.8;stroke:#cccccc;stroke-linejoin:miter;"/>
    </g>
    <g id="patch_3">
     <path d="M 1009.919219 28.777969 
L 1035.919219 28.777969 
L 1035.919219 19.677969 
L 1009.919219 19.677969 
z
" style="fill:#d3d3d3;stroke:#d3d3d3;stroke-linejoin:miter;"/>
    </g>
    <g id="text_18">
     <!-- Event -->
     <g transform="translate(1046.319219 28.777969)scale(0.13 -0.13)">
      <defs>
       <path d="M 628 4666 
L 3578 4666 
L 3578 4134 
L 1259 4134 
L 1259 2753 
L 3481 2753 
L 3481 2222 
L 1259 2222 
L 1259 531 
L 3634 531 
L 3634 0 
L 628 0 
L 628 4666 
z
" id="DejaVuSans-45" transform="scale(0.015625)"/>
       <path d="M 191 3500 
L 800 3500 
L 1894 563 
L 2988 3500 
L 3597 3500 
L 2284 0 
L 1503 0 
L 191 3500 
z
" id="DejaVuSans-76" transform="scale(0.015625)"/>
      </defs>
      <use xlink:href="#DejaVuSans-45"/>
      <use x="63.183594" xlink:href="#DejaVuSans-76"/>
      <use x="122.363281" xlink:href="#DejaVuSans-65"/>
      <use x="183.886719" xlink:href="#DejaVuSans-6e"/>
      <use x="247.265625" xlink:href="#DejaVuSans-74"/>
     </g>
    </g>
    <g id="patch_4">
     <path d="M 1009.919219 47.859531 
L 1035.919219 47.859531 
L 1035.919219 38.759531 
L 1009.919219 38.759531 
z
" style="fill:#00ff00;stroke:#00ff00;stroke-linejoin:miter;"/>
    </g>
    <g id="text_19">
     <!-- Data Field -->
     <g transform="translate(1046.319219 47.859531)scale(0.13 -0.13)">
      <defs>
       <path d="M 1259 4147 
L 1259 519 
L 2022 519 
Q 2988 519 3436 956 
Q 3884 1394 3884 2338 
Q 3884 3275 3436 3711 
Q 2988 4147 2022 4147 
L 1259 4147 
z
M 628 4666 
L 1925 4666 
Q 3281 4666 3915 4102 
Q 4550 3538 4550 2338 
Q 4550 1131 3912 565 
Q 3275 0 1925 0 
L 628 0 
L 628 4666 
z
" id="DejaVuSans-44" transform="scale(0.015625)"/>
       <path id="DejaVuSans-20" transform="scale(0.015625)"/>
       <path d="M 628 4666 
L 3309 4666 
L 3309 4134 
L 1259 4134 
L 1259 2759 
L 3109 2759 
L 3109 2228 
L 1259 2228 
L 1259 0 
L 628 0 
L 628 4666 
z
" id="DejaVuSans-46" transform="scale(0.015625)"/>
       <path d="M 603 3500 
L 1178 3500 
L 1178 0 
L 603 0 
L 603 3500 
z
M 603 4863 
L 1178 4863 
L 1178 4134 
L 603 4134 
L 603 4863 
z
" id="DejaVuSans-69" transform="scale(0.015625)"/>
       <path d="M 603 4863 
L 1178 4863 
L 1178 0 
L 603 0 
L 603 4863 
z
" id="DejaVuSans-6c" transform="scale(0.015625)"/>
      </defs>
      <use xlink:href="#DejaVuSans-44"/>
      <use x="77.001953" xlink:href="#DejaVuSans-61"/>
      <use x="138.28125" xlink:href="#DejaVuSans-74"/>
      <use x="177.490234" xlink:href="#DejaVuSans-61"/>
      <use x="238.769531" xlink:href="#DejaVuSans-20"/>
      <use x="270.556641" xlink:href="#DejaVuSans-46"/>
      <use x="320.826172" xlink:href="#DejaVuSans-69"/>
      <use x="348.609375" xlink:href="#DejaVuSans-65"/>
      <use x="410.132812" xlink:href="#DejaVuSans-6c"/>
      <use x="437.916016" xlink:href="#DejaVuSans-64"/>
     </g>
    </g>
   </g>
  </g>
 </g>
 <defs>
  <clipPath id="p2439ab9f83">
   <rect height="543.6" width="1116" x="7.2" y="7.2"/>
  </clipPath>
 </defs>
</svg>
