<?xml version="1.0" encoding="utf-8" standalone="no"?>
<!DOCTYPE svg PUBLIC "-//W3C//DTD SVG 1.1//EN"
  "http://www.w3.org/Graphics/SVG/1.1/DTD/svg11.dtd">
<svg height="558pt" version="1.1" viewBox="0 0 1130.4 558" width="1130.4pt" xmlns="http://www.w3.org/2000/svg" xmlns:xlink="http://www.w3.org/1999/xlink">
 <metadata>
  <rdf:RDF xmlns:cc="http://creativecommons.org/ns#" xmlns:dc="http://purl.org/dc/elements/1.1/" xmlns:rdf="http://www.w3.org/1999/02/22-rdf-syntax-ns#">
   <cc:Work>
    <dc:type rdf:resource="http://purl.org/dc/dcmitype/StillImage"/>
    <dc:date>2021-06-22T22:03:30.753746</dc:date>
    <dc:format>image/svg+xml</dc:format>
    <dc:creator>
     <cc:Agent>
      <dc:title>Matplotlib v3.4.1, https://matplotlib.org/</dc:title>
     </cc:Agent>
    </dc:creator>
   </cc:Work>
  </rdf:RDF>
 </metadata>
 <defs>
  <style type="text/css">*{stroke-linecap:butt;stroke-linejoin:round;}</style>
 </defs>
 <g id="figure_1">
  <g id="patch_1">
   <path d="M 0 558 
L 1130.4 558 
L 1130.4 0 
L 0 0 
z
" style="fill:#ffffff;"/>
  </g>
  <g id="axes_1">
   <g id="LineCollection_1">
    <path clip-path="url(#p6a989a6f15)" d="M 718.295441 497.957331 
L 672.261384 318.458723 
" style="fill:none;stroke:#000000;"/>
    <path clip-path="url(#p6a989a6f15)" d="M 672.261384 318.458723 
L 281.208141 265.074271 
" style="fill:none;stroke:#000000;"/>
    <path clip-path="url(#p6a989a6f15)" d="M 672.261384 318.458723 
L 397.064517 170.173793 
" style="fill:none;stroke:#000000;"/>
    <path clip-path="url(#p6a989a6f15)" d="M 672.261384 318.458723 
L 368.802914 226.199814 
" style="fill:none;stroke:#000000;"/>
    <path clip-path="url(#p6a989a6f15)" d="M 672.261384 318.458723 
L 312.14872 339.24977 
" style="fill:none;stroke:#000000;"/>
    <path clip-path="url(#p6a989a6f15)" d="M 672.261384 318.458723 
L 569.34891 505.5 
" style="fill:none;stroke:#000000;"/>
    <path clip-path="url(#p6a989a6f15)" d="M 672.261384 318.458723 
L 1030.2 211.149129 
" style="fill:none;stroke:#000000;"/>
    <path clip-path="url(#p6a989a6f15)" d="M 672.261384 318.458723 
L 835.308393 171.512554 
" style="fill:none;stroke:#000000;"/>
    <path clip-path="url(#p6a989a6f15)" d="M 672.261384 318.458723 
L 917.787526 226.291887 
" style="fill:none;stroke:#000000;"/>
    <path clip-path="url(#p6a989a6f15)" d="M 672.261384 318.458723 
L 964.163561 426.454539 
" style="fill:none;stroke:#000000;"/>
    <path clip-path="url(#p6a989a6f15)" d="M 672.261384 318.458723 
L 863.477192 484.751514 
" style="fill:none;stroke:#000000;"/>
    <path clip-path="url(#p6a989a6f15)" d="M 672.261384 318.458723 
L 443.851975 454.190126 
" style="fill:none;stroke:#000000;"/>
    <path clip-path="url(#p6a989a6f15)" d="M 672.261384 318.458723 
L 1021.754562 351.694591 
" style="fill:none;stroke:#000000;"/>
    <path clip-path="url(#p6a989a6f15)" d="M 672.261384 318.458723 
L 747.48501 125.123685 
" style="fill:none;stroke:#000000;"/>
    <path clip-path="url(#p6a989a6f15)" d="M 281.208141 265.074271 
L 189.592271 135.099745 
" style="fill:none;stroke:#000000;"/>
    <path clip-path="url(#p6a989a6f15)" d="M 281.208141 265.074271 
L 157.280639 204.080888 
" style="fill:none;stroke:#000000;"/>
    <path clip-path="url(#p6a989a6f15)" d="M 189.592271 135.099745 
L 100.2 52.5 
" style="fill:none;stroke:#000000;"/>
    <path clip-path="url(#p6a989a6f15)" d="M 189.592271 135.099745 
L 397.064517 170.173793 
" style="fill:none;stroke:#000000;"/>
    <path clip-path="url(#p6a989a6f15)" d="M 189.592271 135.099745 
L 368.802914 226.199814 
" style="fill:none;stroke:#000000;"/>
    <path clip-path="url(#p6a989a6f15)" d="M 157.280639 204.080888 
L 100.2 52.5 
" style="fill:none;stroke:#000000;"/>
    <path clip-path="url(#p6a989a6f15)" d="M 157.280639 204.080888 
L 397.064517 170.173793 
" style="fill:none;stroke:#000000;"/>
    <path clip-path="url(#p6a989a6f15)" d="M 157.280639 204.080888 
L 368.802914 226.199814 
" style="fill:none;stroke:#000000;"/>
    <path clip-path="url(#p6a989a6f15)" d="M 157.280639 204.080888 
L 312.14872 339.24977 
" style="fill:none;stroke:#000000;"/>
    <path clip-path="url(#p6a989a6f15)" d="M 1030.2 211.149129 
L 969.696181 99.91522 
" style="fill:none;stroke:#000000;"/>
    <path clip-path="url(#p6a989a6f15)" d="M 969.696181 99.91522 
L 835.308393 171.512554 
" style="fill:none;stroke:#000000;"/>
    <path clip-path="url(#p6a989a6f15)" d="M 969.696181 99.91522 
L 917.787526 226.291887 
" style="fill:none;stroke:#000000;"/>
    <path clip-path="url(#p6a989a6f15)" d="M 969.696181 99.91522 
L 747.48501 125.123685 
" style="fill:none;stroke:#000000;"/>
   </g>
   <g id="PathCollection_1">
    <path clip-path="url(#p6a989a6f15)" d="M 718.295441 529.580108 
C 726.6819 529.580108 734.725999 526.248133 740.656121 520.318011 
C 746.586243 514.387889 749.918218 506.34379 749.918218 497.957331 
C 749.918218 489.570873 746.586243 481.526773 740.656121 475.596651 
C 734.725999 469.66653 726.6819 466.334555 718.295441 466.334555 
C 709.908983 466.334555 701.864883 469.66653 695.934761 475.596651 
C 690.00464 481.526773 686.672665 489.570873 686.672665 497.957331 
C 686.672665 506.34379 690.00464 514.387889 695.934761 520.318011 
C 701.864883 526.248133 709.908983 529.580108 718.295441 529.580108 
z
" style="fill:#d3d3d3;stroke:#d3d3d3;"/>
    <path clip-path="url(#p6a989a6f15)" d="M 672.261384 365.892888 
C 684.841072 365.892888 696.907221 360.894925 705.802404 351.999743 
C 714.697586 343.10456 719.695549 331.03841 719.695549 318.458723 
C 719.695549 305.879035 714.697586 293.812886 705.802404 284.917703 
C 696.907221 276.022521 684.841072 271.024558 672.261384 271.024558 
C 659.681696 271.024558 647.615547 276.022521 638.720364 284.917703 
C 629.825182 293.812886 624.827219 305.879035 624.827219 318.458723 
C 624.827219 331.03841 629.825182 343.10456 638.720364 351.999743 
C 647.615547 360.894925 659.681696 365.892888 672.261384 365.892888 
z
" style="fill:#00ff00;stroke:#00ff00;"/>
    <path clip-path="url(#p6a989a6f15)" d="M 281.208141 296.697048 
C 289.5946 296.697048 297.638699 293.365072 303.568821 287.434951 
C 309.498942 281.504829 312.830918 273.460729 312.830918 265.074271 
C 312.830918 256.687813 309.498942 248.643713 303.568821 242.713591 
C 297.638699 236.78347 289.5946 233.451495 281.208141 233.451495 
C 272.821683 233.451495 264.777583 236.78347 258.847461 242.713591 
C 252.91734 248.643713 249.585365 256.687813 249.585365 265.074271 
C 249.585365 273.460729 252.91734 281.504829 258.847461 287.434951 
C 264.777583 293.365072 272.821683 296.697048 281.208141 296.697048 
z
" style="fill:#d3d3d3;stroke:#d3d3d3;"/>
    <path clip-path="url(#p6a989a6f15)" d="M 189.592271 182.53391 
C 202.171959 182.53391 214.238109 177.535947 223.133291 168.640764 
C 232.028473 159.745582 237.026436 147.679432 237.026436 135.099745 
C 237.026436 122.520057 232.028473 110.453907 223.133291 101.558725 
C 214.238109 92.663543 202.171959 87.66558 189.592271 87.66558 
C 177.012584 87.66558 164.946434 92.663543 156.051252 101.558725 
C 147.156069 110.453907 142.158106 122.520057 142.158106 135.099745 
C 142.158106 147.679432 147.156069 159.745582 156.051252 168.640764 
C 164.946434 177.535947 177.012584 182.53391 189.592271 182.53391 
z
" style="fill:#00ff00;stroke:#00ff00;"/>
    <path clip-path="url(#p6a989a6f15)" d="M 157.280639 251.515053 
C 169.860326 251.515053 181.926476 246.51709 190.821658 237.621908 
C 199.716841 228.726725 204.714803 216.660576 204.714803 204.080888 
C 204.714803 191.501201 199.716841 179.435051 190.821658 170.539869 
C 181.926476 161.644686 169.860326 156.646723 157.280639 156.646723 
C 144.700951 156.646723 132.634801 161.644686 123.739619 170.539869 
C 114.844436 179.435051 109.846474 191.501201 109.846474 204.080888 
C 109.846474 216.660576 114.844436 228.726725 123.739619 237.621908 
C 132.634801 246.51709 144.700951 251.515053 157.280639 251.515053 
z
" style="fill:#00ff00;stroke:#00ff00;"/>
    <path clip-path="url(#p6a989a6f15)" d="M 100.2 84.122777 
C 108.586458 84.122777 116.630558 80.790801 122.56068 74.86068 
C 128.490801 68.930558 131.822777 60.886458 131.822777 52.5 
C 131.822777 44.113542 128.490801 36.069442 122.56068 30.13932 
C 116.630558 24.209199 108.586458 20.877223 100.2 20.877223 
C 91.813542 20.877223 83.769442 24.209199 77.83932 30.13932 
C 71.909199 36.069442 68.577223 44.113542 68.577223 52.5 
C 68.577223 60.886458 71.909199 68.930558 77.83932 74.86068 
C 83.769442 80.790801 91.813542 84.122777 100.2 84.122777 
z
" style="fill:#d3d3d3;stroke:#d3d3d3;"/>
    <path clip-path="url(#p6a989a6f15)" d="M 397.064517 201.796569 
C 405.450975 201.796569 413.495075 198.464594 419.425197 192.534473 
C 425.355318 186.604351 428.687294 178.560251 428.687294 170.173793 
C 428.687294 161.787334 425.355318 153.743235 419.425197 147.813113 
C 413.495075 141.882991 405.450975 138.551016 397.064517 138.551016 
C 388.678059 138.551016 380.633959 141.882991 374.703837 147.813113 
C 368.773716 153.743235 365.44174 161.787334 365.44174 170.173793 
C 365.44174 178.560251 368.773716 186.604351 374.703837 192.534473 
C 380.633959 198.464594 388.678059 201.796569 397.064517 201.796569 
z
" style="fill:#d3d3d3;stroke:#d3d3d3;"/>
    <path clip-path="url(#p6a989a6f15)" d="M 368.802914 257.82259 
C 377.189372 257.82259 385.233472 254.490615 391.163593 248.560493 
C 397.093715 242.630372 400.42569 234.586272 400.42569 226.199814 
C 400.42569 217.813355 397.093715 209.769255 391.163593 203.839134 
C 385.233472 197.909012 377.189372 194.577037 368.802914 194.577037 
C 360.416455 194.577037 352.372355 197.909012 346.442234 203.839134 
C 340.512112 209.769255 337.180137 217.813355 337.180137 226.199814 
C 337.180137 234.586272 340.512112 242.630372 346.442234 248.560493 
C 352.372355 254.490615 360.416455 257.82259 368.802914 257.82259 
z
" style="fill:#d3d3d3;stroke:#d3d3d3;"/>
    <path clip-path="url(#p6a989a6f15)" d="M 312.14872 370.872547 
C 320.535178 370.872547 328.579278 367.540571 334.5094 361.61045 
C 340.439521 355.680328 343.771496 347.636228 343.771496 339.24977 
C 343.771496 330.863312 340.439521 322.819212 334.5094 316.88909 
C 328.579278 310.958969 320.535178 307.626993 312.14872 307.626993 
C 303.762261 307.626993 295.718162 310.958969 289.78804 316.88909 
C 283.857918 322.819212 280.525943 330.863312 280.525943 339.24977 
C 280.525943 347.636228 283.857918 355.680328 289.78804 361.61045 
C 295.718162 367.540571 303.762261 370.872547 312.14872 370.872547 
z
" style="fill:#d3d3d3;stroke:#d3d3d3;"/>
    <path clip-path="url(#p6a989a6f15)" d="M 569.34891 537.122777 
C 577.735368 537.122777 585.779468 533.790801 591.70959 527.86068 
C 597.639711 521.930558 600.971687 513.886458 600.971687 505.5 
C 600.971687 497.113542 597.639711 489.069442 591.70959 483.13932 
C 585.779468 477.209199 577.735368 473.877223 569.34891 473.877223 
C 560.962452 473.877223 552.918352 477.209199 546.98823 483.13932 
C 541.058109 489.069442 537.726133 497.113542 537.726133 505.5 
C 537.726133 513.886458 541.058109 521.930558 546.98823 527.86068 
C 552.918352 533.790801 560.962452 537.122777 569.34891 537.122777 
z
" style="fill:#d3d3d3;stroke:#d3d3d3;"/>
    <path clip-path="url(#p6a989a6f15)" d="M 1030.2 242.771905 
C 1038.586458 242.771905 1046.630558 239.43993 1052.56068 233.509808 
C 1058.490801 227.579687 1061.822777 219.535587 1061.822777 211.149129 
C 1061.822777 202.76267 1058.490801 194.71857 1052.56068 188.788449 
C 1046.630558 182.858327 1038.586458 179.526352 1030.2 179.526352 
C 1021.813542 179.526352 1013.769442 182.858327 1007.83932 188.788449 
C 1001.909199 194.71857 998.577223 202.76267 998.577223 211.149129 
C 998.577223 219.535587 1001.909199 227.579687 1007.83932 233.509808 
C 1013.769442 239.43993 1021.813542 242.771905 1030.2 242.771905 
z
" style="fill:#d3d3d3;stroke:#d3d3d3;"/>
    <path clip-path="url(#p6a989a6f15)" d="M 969.696181 147.349385 
C 982.275868 147.349385 994.342018 142.351422 1003.2372 133.456239 
C 1012.132383 124.561057 1017.130346 112.494907 1017.130346 99.91522 
C 1017.130346 87.335532 1012.132383 75.269383 1003.2372 66.3742 
C 994.342018 57.479018 982.275868 52.481055 969.696181 52.481055 
C 957.116493 52.481055 945.050343 57.479018 936.155161 66.3742 
C 927.259979 75.269383 922.262016 87.335532 922.262016 99.91522 
C 922.262016 112.494907 927.259979 124.561057 936.155161 133.456239 
C 945.050343 142.351422 957.116493 147.349385 969.696181 147.349385 
z
" style="fill:#00ff00;stroke:#00ff00;"/>
    <path clip-path="url(#p6a989a6f15)" d="M 835.308393 203.135331 
C 843.694852 203.135331 851.738952 199.803356 857.669073 193.873234 
C 863.599195 187.943112 866.93117 179.899013 866.93117 171.512554 
C 866.93117 163.126096 863.599195 155.081996 857.669073 149.151875 
C 851.738952 143.221753 843.694852 139.889778 835.308393 139.889778 
C 826.921935 139.889778 818.877835 143.221753 812.947714 149.151875 
C 807.017592 155.081996 803.685617 163.126096 803.685617 171.512554 
C 803.685617 179.899013 807.017592 187.943112 812.947714 193.873234 
C 818.877835 199.803356 826.921935 203.135331 835.308393 203.135331 
z
" style="fill:#d3d3d3;stroke:#d3d3d3;"/>
    <path clip-path="url(#p6a989a6f15)" d="M 917.787526 257.914664 
C 926.173984 257.914664 934.218084 254.582688 940.148206 248.652567 
C 946.078327 242.722445 949.410303 234.678345 949.410303 226.291887 
C 949.410303 217.905429 946.078327 209.861329 940.148206 203.931207 
C 934.218084 198.001086 926.173984 194.66911 917.787526 194.66911 
C 909.401068 194.66911 901.356968 198.001086 895.426846 203.931207 
C 889.496725 209.861329 886.164749 217.905429 886.164749 226.291887 
C 886.164749 234.678345 889.496725 242.722445 895.426846 248.652567 
C 901.356968 254.582688 909.401068 257.914664 917.787526 257.914664 
z
" style="fill:#d3d3d3;stroke:#d3d3d3;"/>
    <path clip-path="url(#p6a989a6f15)" d="M 964.163561 458.077315 
C 972.55002 458.077315 980.594119 454.74534 986.524241 448.815218 
C 992.454363 442.885097 995.786338 434.840997 995.786338 426.454539 
C 995.786338 418.06808 992.454363 410.02398 986.524241 404.093859 
C 980.594119 398.163737 972.55002 394.831762 964.163561 394.831762 
C 955.777103 394.831762 947.733003 398.163737 941.802881 404.093859 
C 935.87276 410.02398 932.540785 418.06808 932.540785 426.454539 
C 932.540785 434.840997 935.87276 442.885097 941.802881 448.815218 
C 947.733003 454.74534 955.777103 458.077315 964.163561 458.077315 
z
" style="fill:#d3d3d3;stroke:#d3d3d3;"/>
    <path clip-path="url(#p6a989a6f15)" d="M 863.477192 516.374291 
C 871.863651 516.374291 879.90775 513.042316 885.837872 507.112194 
C 891.767994 501.182073 895.099969 493.137973 895.099969 484.751514 
C 895.099969 476.365056 891.767994 468.320956 885.837872 462.390835 
C 879.90775 456.460713 871.863651 453.128738 863.477192 453.128738 
C 855.090734 453.128738 847.046634 456.460713 841.116512 462.390835 
C 835.186391 468.320956 831.854416 476.365056 831.854416 484.751514 
C 831.854416 493.137973 835.186391 501.182073 841.116512 507.112194 
C 847.046634 513.042316 855.090734 516.374291 863.477192 516.374291 
z
" style="fill:#d3d3d3;stroke:#d3d3d3;"/>
    <path clip-path="url(#p6a989a6f15)" d="M 443.851975 485.812902 
C 452.238433 485.812902 460.282533 482.480927 466.212654 476.550806 
C 472.142776 470.620684 475.474751 462.576584 475.474751 454.190126 
C 475.474751 445.803668 472.142776 437.759568 466.212654 431.829446 
C 460.282533 425.899325 452.238433 422.567349 443.851975 422.567349 
C 435.465516 422.567349 427.421417 425.899325 421.491295 431.829446 
C 415.561173 437.759568 412.229198 445.803668 412.229198 454.190126 
C 412.229198 462.576584 415.561173 470.620684 421.491295 476.550806 
C 427.421417 482.480927 435.465516 485.812902 443.851975 485.812902 
z
" style="fill:#d3d3d3;stroke:#d3d3d3;"/>
    <path clip-path="url(#p6a989a6f15)" d="M 1021.754562 383.317367 
C 1030.14102 383.317367 1038.18512 379.985392 1044.115242 374.05527 
C 1050.045363 368.125149 1053.377339 360.081049 1053.377339 351.694591 
C 1053.377339 343.308132 1050.045363 335.264033 1044.115242 329.333911 
C 1038.18512 323.403789 1030.14102 320.071814 1021.754562 320.071814 
C 1013.368104 320.071814 1005.324004 323.403789 999.393882 329.333911 
C 993.463761 335.264033 990.131785 343.308132 990.131785 351.694591 
C 990.131785 360.081049 993.463761 368.125149 999.393882 374.05527 
C 1005.324004 379.985392 1013.368104 383.317367 1021.754562 383.317367 
z
" style="fill:#d3d3d3;stroke:#d3d3d3;"/>
    <path clip-path="url(#p6a989a6f15)" d="M 747.48501 156.746462 
C 755.871468 156.746462 763.915568 153.414486 769.84569 147.484365 
C 775.775811 141.554243 779.107787 133.510143 779.107787 125.123685 
C 779.107787 116.737227 775.775811 108.693127 769.84569 102.763005 
C 763.915568 96.832884 755.871468 93.500908 747.48501 93.500908 
C 739.098552 93.500908 731.054452 96.832884 725.12433 102.763005 
C 719.194209 108.693127 715.862233 116.737227 715.862233 125.123685 
C 715.862233 133.510143 719.194209 141.554243 725.12433 147.484365 
C 731.054452 153.414486 739.098552 156.746462 747.48501 156.746462 
z
" style="fill:#d3d3d3;stroke:#d3d3d3;"/>
   </g>
   <g id="text_1">
    <g clip-path="url(#p6a989a6f15)">
     <!-- 4618 -->
     <g transform="translate(700.480441 501.820456)scale(0.14 -0.14)">
      <defs>
       <path d="M 2419 4116 
L 825 1625 
L 2419 1625 
L 2419 4116 
z
M 2253 4666 
L 3047 4666 
L 3047 1625 
L 3713 1625 
L 3713 1100 
L 3047 1100 
L 3047 0 
L 2419 0 
L 2419 1100 
L 313 1100 
L 313 1709 
L 2253 4666 
z
" id="DejaVuSans-34" transform="scale(0.015625)"/>
       <path d="M 2113 2584 
Q 1688 2584 1439 2293 
Q 1191 2003 1191 1497 
Q 1191 994 1439 701 
Q 1688 409 2113 409 
Q 2538 409 2786 701 
Q 3034 994 3034 1497 
Q 3034 2003 2786 2293 
Q 2538 2584 2113 2584 
z
M 3366 4563 
L 3366 3988 
Q 3128 4100 2886 4159 
Q 2644 4219 2406 4219 
Q 1781 4219 1451 3797 
Q 1122 3375 1075 2522 
Q 1259 2794 1537 2939 
Q 1816 3084 2150 3084 
Q 2853 3084 3261 2657 
Q 3669 2231 3669 1497 
Q 3669 778 3244 343 
Q 2819 -91 2113 -91 
Q 1303 -91 875 529 
Q 447 1150 447 2328 
Q 447 3434 972 4092 
Q 1497 4750 2381 4750 
Q 2619 4750 2861 4703 
Q 3103 4656 3366 4563 
z
" id="DejaVuSans-36" transform="scale(0.015625)"/>
       <path d="M 794 531 
L 1825 531 
L 1825 4091 
L 703 3866 
L 703 4441 
L 1819 4666 
L 2450 4666 
L 2450 531 
L 3481 531 
L 3481 0 
L 794 0 
L 794 531 
z
" id="DejaVuSans-31" transform="scale(0.015625)"/>
       <path d="M 2034 2216 
Q 1584 2216 1326 1975 
Q 1069 1734 1069 1313 
Q 1069 891 1326 650 
Q 1584 409 2034 409 
Q 2484 409 2743 651 
Q 3003 894 3003 1313 
Q 3003 1734 2745 1975 
Q 2488 2216 2034 2216 
z
M 1403 2484 
Q 997 2584 770 2862 
Q 544 3141 544 3541 
Q 544 4100 942 4425 
Q 1341 4750 2034 4750 
Q 2731 4750 3128 4425 
Q 3525 4100 3525 3541 
Q 3525 3141 3298 2862 
Q 3072 2584 2669 2484 
Q 3125 2378 3379 2068 
Q 3634 1759 3634 1313 
Q 3634 634 3220 271 
Q 2806 -91 2034 -91 
Q 1263 -91 848 271 
Q 434 634 434 1313 
Q 434 1759 690 2068 
Q 947 2378 1403 2484 
z
M 1172 3481 
Q 1172 3119 1398 2916 
Q 1625 2713 2034 2713 
Q 2441 2713 2670 2916 
Q 2900 3119 2900 3481 
Q 2900 3844 2670 4047 
Q 2441 4250 2034 4250 
Q 1625 4250 1398 4047 
Q 1172 3844 1172 3481 
z
" id="DejaVuSans-38" transform="scale(0.015625)"/>
      </defs>
      <use xlink:href="#DejaVuSans-34"/>
      <use x="63.623047" xlink:href="#DejaVuSans-36"/>
      <use x="127.246094" xlink:href="#DejaVuSans-31"/>
      <use x="190.869141" xlink:href="#DejaVuSans-38"/>
     </g>
    </g>
   </g>
   <g id="text_2">
    <g clip-path="url(#p6a989a6f15)">
     <!-- user_logon_id -->
     <g transform="translate(624.21404 322.12716)scale(0.14 -0.14)">
      <defs>
       <path d="M 544 1381 
L 544 3500 
L 1119 3500 
L 1119 1403 
Q 1119 906 1312 657 
Q 1506 409 1894 409 
Q 2359 409 2629 706 
Q 2900 1003 2900 1516 
L 2900 3500 
L 3475 3500 
L 3475 0 
L 2900 0 
L 2900 538 
Q 2691 219 2414 64 
Q 2138 -91 1772 -91 
Q 1169 -91 856 284 
Q 544 659 544 1381 
z
M 1991 3584 
L 1991 3584 
z
" id="DejaVuSans-75" transform="scale(0.015625)"/>
       <path d="M 2834 3397 
L 2834 2853 
Q 2591 2978 2328 3040 
Q 2066 3103 1784 3103 
Q 1356 3103 1142 2972 
Q 928 2841 928 2578 
Q 928 2378 1081 2264 
Q 1234 2150 1697 2047 
L 1894 2003 
Q 2506 1872 2764 1633 
Q 3022 1394 3022 966 
Q 3022 478 2636 193 
Q 2250 -91 1575 -91 
Q 1294 -91 989 -36 
Q 684 19 347 128 
L 347 722 
Q 666 556 975 473 
Q 1284 391 1588 391 
Q 1994 391 2212 530 
Q 2431 669 2431 922 
Q 2431 1156 2273 1281 
Q 2116 1406 1581 1522 
L 1381 1569 
Q 847 1681 609 1914 
Q 372 2147 372 2553 
Q 372 3047 722 3315 
Q 1072 3584 1716 3584 
Q 2034 3584 2315 3537 
Q 2597 3491 2834 3397 
z
" id="DejaVuSans-73" transform="scale(0.015625)"/>
       <path d="M 3597 1894 
L 3597 1613 
L 953 1613 
Q 991 1019 1311 708 
Q 1631 397 2203 397 
Q 2534 397 2845 478 
Q 3156 559 3463 722 
L 3463 178 
Q 3153 47 2828 -22 
Q 2503 -91 2169 -91 
Q 1331 -91 842 396 
Q 353 884 353 1716 
Q 353 2575 817 3079 
Q 1281 3584 2069 3584 
Q 2775 3584 3186 3129 
Q 3597 2675 3597 1894 
z
M 3022 2063 
Q 3016 2534 2758 2815 
Q 2500 3097 2075 3097 
Q 1594 3097 1305 2825 
Q 1016 2553 972 2059 
L 3022 2063 
z
" id="DejaVuSans-65" transform="scale(0.015625)"/>
       <path d="M 2631 2963 
Q 2534 3019 2420 3045 
Q 2306 3072 2169 3072 
Q 1681 3072 1420 2755 
Q 1159 2438 1159 1844 
L 1159 0 
L 581 0 
L 581 3500 
L 1159 3500 
L 1159 2956 
Q 1341 3275 1631 3429 
Q 1922 3584 2338 3584 
Q 2397 3584 2469 3576 
Q 2541 3569 2628 3553 
L 2631 2963 
z
" id="DejaVuSans-72" transform="scale(0.015625)"/>
       <path d="M 3263 -1063 
L 3263 -1509 
L -63 -1509 
L -63 -1063 
L 3263 -1063 
z
" id="DejaVuSans-5f" transform="scale(0.015625)"/>
       <path d="M 603 4863 
L 1178 4863 
L 1178 0 
L 603 0 
L 603 4863 
z
" id="DejaVuSans-6c" transform="scale(0.015625)"/>
       <path d="M 1959 3097 
Q 1497 3097 1228 2736 
Q 959 2375 959 1747 
Q 959 1119 1226 758 
Q 1494 397 1959 397 
Q 2419 397 2687 759 
Q 2956 1122 2956 1747 
Q 2956 2369 2687 2733 
Q 2419 3097 1959 3097 
z
M 1959 3584 
Q 2709 3584 3137 3096 
Q 3566 2609 3566 1747 
Q 3566 888 3137 398 
Q 2709 -91 1959 -91 
Q 1206 -91 779 398 
Q 353 888 353 1747 
Q 353 2609 779 3096 
Q 1206 3584 1959 3584 
z
" id="DejaVuSans-6f" transform="scale(0.015625)"/>
       <path d="M 2906 1791 
Q 2906 2416 2648 2759 
Q 2391 3103 1925 3103 
Q 1463 3103 1205 2759 
Q 947 2416 947 1791 
Q 947 1169 1205 825 
Q 1463 481 1925 481 
Q 2391 481 2648 825 
Q 2906 1169 2906 1791 
z
M 3481 434 
Q 3481 -459 3084 -895 
Q 2688 -1331 1869 -1331 
Q 1566 -1331 1297 -1286 
Q 1028 -1241 775 -1147 
L 775 -588 
Q 1028 -725 1275 -790 
Q 1522 -856 1778 -856 
Q 2344 -856 2625 -561 
Q 2906 -266 2906 331 
L 2906 616 
Q 2728 306 2450 153 
Q 2172 0 1784 0 
Q 1141 0 747 490 
Q 353 981 353 1791 
Q 353 2603 747 3093 
Q 1141 3584 1784 3584 
Q 2172 3584 2450 3431 
Q 2728 3278 2906 2969 
L 2906 3500 
L 3481 3500 
L 3481 434 
z
" id="DejaVuSans-67" transform="scale(0.015625)"/>
       <path d="M 3513 2113 
L 3513 0 
L 2938 0 
L 2938 2094 
Q 2938 2591 2744 2837 
Q 2550 3084 2163 3084 
Q 1697 3084 1428 2787 
Q 1159 2491 1159 1978 
L 1159 0 
L 581 0 
L 581 3500 
L 1159 3500 
L 1159 2956 
Q 1366 3272 1645 3428 
Q 1925 3584 2291 3584 
Q 2894 3584 3203 3211 
Q 3513 2838 3513 2113 
z
" id="DejaVuSans-6e" transform="scale(0.015625)"/>
       <path d="M 603 3500 
L 1178 3500 
L 1178 0 
L 603 0 
L 603 3500 
z
M 603 4863 
L 1178 4863 
L 1178 4134 
L 603 4134 
L 603 4863 
z
" id="DejaVuSans-69" transform="scale(0.015625)"/>
       <path d="M 2906 2969 
L 2906 4863 
L 3481 4863 
L 3481 0 
L 2906 0 
L 2906 525 
Q 2725 213 2448 61 
Q 2172 -91 1784 -91 
Q 1150 -91 751 415 
Q 353 922 353 1747 
Q 353 2572 751 3078 
Q 1150 3584 1784 3584 
Q 2172 3584 2448 3432 
Q 2725 3281 2906 2969 
z
M 947 1747 
Q 947 1113 1208 752 
Q 1469 391 1925 391 
Q 2381 391 2643 752 
Q 2906 1113 2906 1747 
Q 2906 2381 2643 2742 
Q 2381 3103 1925 3103 
Q 1469 3103 1208 2742 
Q 947 2381 947 1747 
z
" id="DejaVuSans-64" transform="scale(0.015625)"/>
      </defs>
      <use xlink:href="#DejaVuSans-75"/>
      <use x="63.378906" xlink:href="#DejaVuSans-73"/>
      <use x="115.478516" xlink:href="#DejaVuSans-65"/>
      <use x="177.001953" xlink:href="#DejaVuSans-72"/>
      <use x="218.115234" xlink:href="#DejaVuSans-5f"/>
      <use x="268.115234" xlink:href="#DejaVuSans-6c"/>
      <use x="295.898438" xlink:href="#DejaVuSans-6f"/>
      <use x="357.080078" xlink:href="#DejaVuSans-67"/>
      <use x="420.556641" xlink:href="#DejaVuSans-6f"/>
      <use x="481.738281" xlink:href="#DejaVuSans-6e"/>
      <use x="545.117188" xlink:href="#DejaVuSans-5f"/>
      <use x="595.117188" xlink:href="#DejaVuSans-69"/>
      <use x="622.900391" xlink:href="#DejaVuSans-64"/>
     </g>
    </g>
   </g>
   <g id="text_3">
    <g clip-path="url(#p6a989a6f15)">
     <!-- 4624 -->
     <g transform="translate(263.393141 268.937396)scale(0.14 -0.14)">
      <defs>
       <path d="M 1228 531 
L 3431 531 
L 3431 0 
L 469 0 
L 469 531 
Q 828 903 1448 1529 
Q 2069 2156 2228 2338 
Q 2531 2678 2651 2914 
Q 2772 3150 2772 3378 
Q 2772 3750 2511 3984 
Q 2250 4219 1831 4219 
Q 1534 4219 1204 4116 
Q 875 4013 500 3803 
L 500 4441 
Q 881 4594 1212 4672 
Q 1544 4750 1819 4750 
Q 2544 4750 2975 4387 
Q 3406 4025 3406 3419 
Q 3406 3131 3298 2873 
Q 3191 2616 2906 2266 
Q 2828 2175 2409 1742 
Q 1991 1309 1228 531 
z
" id="DejaVuSans-32" transform="scale(0.015625)"/>
      </defs>
      <use xlink:href="#DejaVuSans-34"/>
      <use x="63.623047" xlink:href="#DejaVuSans-36"/>
      <use x="127.246094" xlink:href="#DejaVuSans-32"/>
      <use x="190.869141" xlink:href="#DejaVuSans-34"/>
     </g>
    </g>
   </g>
   <g id="text_4">
    <g clip-path="url(#p6a989a6f15)">
     <!-- user_reporter_id -->
     <g transform="translate(132.374928 138.768182)scale(0.14 -0.14)">
      <defs>
       <path d="M 1159 525 
L 1159 -1331 
L 581 -1331 
L 581 3500 
L 1159 3500 
L 1159 2969 
Q 1341 3281 1617 3432 
Q 1894 3584 2278 3584 
Q 2916 3584 3314 3078 
Q 3713 2572 3713 1747 
Q 3713 922 3314 415 
Q 2916 -91 2278 -91 
Q 1894 -91 1617 61 
Q 1341 213 1159 525 
z
M 3116 1747 
Q 3116 2381 2855 2742 
Q 2594 3103 2138 3103 
Q 1681 3103 1420 2742 
Q 1159 2381 1159 1747 
Q 1159 1113 1420 752 
Q 1681 391 2138 391 
Q 2594 391 2855 752 
Q 3116 1113 3116 1747 
z
" id="DejaVuSans-70" transform="scale(0.015625)"/>
       <path d="M 1172 4494 
L 1172 3500 
L 2356 3500 
L 2356 3053 
L 1172 3053 
L 1172 1153 
Q 1172 725 1289 603 
Q 1406 481 1766 481 
L 2356 481 
L 2356 0 
L 1766 0 
Q 1100 0 847 248 
Q 594 497 594 1153 
L 594 3053 
L 172 3053 
L 172 3500 
L 594 3500 
L 594 4494 
L 1172 4494 
z
" id="DejaVuSans-74" transform="scale(0.015625)"/>
      </defs>
      <use xlink:href="#DejaVuSans-75"/>
      <use x="63.378906" xlink:href="#DejaVuSans-73"/>
      <use x="115.478516" xlink:href="#DejaVuSans-65"/>
      <use x="177.001953" xlink:href="#DejaVuSans-72"/>
      <use x="218.115234" xlink:href="#DejaVuSans-5f"/>
      <use x="268.115234" xlink:href="#DejaVuSans-72"/>
      <use x="306.978516" xlink:href="#DejaVuSans-65"/>
      <use x="368.501953" xlink:href="#DejaVuSans-70"/>
      <use x="431.978516" xlink:href="#DejaVuSans-6f"/>
      <use x="493.160156" xlink:href="#DejaVuSans-72"/>
      <use x="534.273438" xlink:href="#DejaVuSans-74"/>
      <use x="573.482422" xlink:href="#DejaVuSans-65"/>
      <use x="635.005859" xlink:href="#DejaVuSans-72"/>
      <use x="676.119141" xlink:href="#DejaVuSans-5f"/>
      <use x="726.119141" xlink:href="#DejaVuSans-69"/>
      <use x="753.902344" xlink:href="#DejaVuSans-64"/>
     </g>
    </g>
   </g>
   <g id="text_5">
    <g clip-path="url(#p6a989a6f15)">
     <!-- logon_type -->
     <g transform="translate(118.751107 207.749326)scale(0.14 -0.14)">
      <defs>
       <path d="M 2059 -325 
Q 1816 -950 1584 -1140 
Q 1353 -1331 966 -1331 
L 506 -1331 
L 506 -850 
L 844 -850 
Q 1081 -850 1212 -737 
Q 1344 -625 1503 -206 
L 1606 56 
L 191 3500 
L 800 3500 
L 1894 763 
L 2988 3500 
L 3597 3500 
L 2059 -325 
z
" id="DejaVuSans-79" transform="scale(0.015625)"/>
      </defs>
      <use xlink:href="#DejaVuSans-6c"/>
      <use x="27.783203" xlink:href="#DejaVuSans-6f"/>
      <use x="88.964844" xlink:href="#DejaVuSans-67"/>
      <use x="152.441406" xlink:href="#DejaVuSans-6f"/>
      <use x="213.623047" xlink:href="#DejaVuSans-6e"/>
      <use x="277.001953" xlink:href="#DejaVuSans-5f"/>
      <use x="327.001953" xlink:href="#DejaVuSans-74"/>
      <use x="366.210938" xlink:href="#DejaVuSans-79"/>
      <use x="425.390625" xlink:href="#DejaVuSans-70"/>
      <use x="488.867188" xlink:href="#DejaVuSans-65"/>
     </g>
    </g>
   </g>
   <g id="text_6">
    <g clip-path="url(#p6a989a6f15)">
     <!-- 4625 -->
     <g transform="translate(82.385 56.363125)scale(0.14 -0.14)">
      <defs>
       <path d="M 691 4666 
L 3169 4666 
L 3169 4134 
L 1269 4134 
L 1269 2991 
Q 1406 3038 1543 3061 
Q 1681 3084 1819 3084 
Q 2600 3084 3056 2656 
Q 3513 2228 3513 1497 
Q 3513 744 3044 326 
Q 2575 -91 1722 -91 
Q 1428 -91 1123 -41 
Q 819 9 494 109 
L 494 744 
Q 775 591 1075 516 
Q 1375 441 1709 441 
Q 2250 441 2565 725 
Q 2881 1009 2881 1497 
Q 2881 1984 2565 2268 
Q 2250 2553 1709 2553 
Q 1456 2553 1204 2497 
Q 953 2441 691 2322 
L 691 4666 
z
" id="DejaVuSans-35" transform="scale(0.015625)"/>
      </defs>
      <use xlink:href="#DejaVuSans-34"/>
      <use x="63.623047" xlink:href="#DejaVuSans-36"/>
      <use x="127.246094" xlink:href="#DejaVuSans-32"/>
      <use x="190.869141" xlink:href="#DejaVuSans-35"/>
     </g>
    </g>
   </g>
   <g id="text_7">
    <g clip-path="url(#p6a989a6f15)">
     <!-- 4626 -->
     <g transform="translate(379.249517 174.036918)scale(0.14 -0.14)">
      <use xlink:href="#DejaVuSans-34"/>
      <use x="63.623047" xlink:href="#DejaVuSans-36"/>
      <use x="127.246094" xlink:href="#DejaVuSans-32"/>
      <use x="190.869141" xlink:href="#DejaVuSans-36"/>
     </g>
    </g>
   </g>
   <g id="text_8">
    <g clip-path="url(#p6a989a6f15)">
     <!-- 4627 -->
     <g transform="translate(350.987914 230.062939)scale(0.14 -0.14)">
      <defs>
       <path d="M 525 4666 
L 3525 4666 
L 3525 4397 
L 1831 0 
L 1172 0 
L 2766 4134 
L 525 4134 
L 525 4666 
z
" id="DejaVuSans-37" transform="scale(0.015625)"/>
      </defs>
      <use xlink:href="#DejaVuSans-34"/>
      <use x="63.623047" xlink:href="#DejaVuSans-36"/>
      <use x="127.246094" xlink:href="#DejaVuSans-32"/>
      <use x="190.869141" xlink:href="#DejaVuSans-37"/>
     </g>
    </g>
   </g>
   <g id="text_9">
    <g clip-path="url(#p6a989a6f15)">
     <!-- 4634 -->
     <g transform="translate(294.33372 343.112895)scale(0.14 -0.14)">
      <defs>
       <path d="M 2597 2516 
Q 3050 2419 3304 2112 
Q 3559 1806 3559 1356 
Q 3559 666 3084 287 
Q 2609 -91 1734 -91 
Q 1441 -91 1130 -33 
Q 819 25 488 141 
L 488 750 
Q 750 597 1062 519 
Q 1375 441 1716 441 
Q 2309 441 2620 675 
Q 2931 909 2931 1356 
Q 2931 1769 2642 2001 
Q 2353 2234 1838 2234 
L 1294 2234 
L 1294 2753 
L 1863 2753 
Q 2328 2753 2575 2939 
Q 2822 3125 2822 3475 
Q 2822 3834 2567 4026 
Q 2313 4219 1838 4219 
Q 1578 4219 1281 4162 
Q 984 4106 628 3988 
L 628 4550 
Q 988 4650 1302 4700 
Q 1616 4750 1894 4750 
Q 2613 4750 3031 4423 
Q 3450 4097 3450 3541 
Q 3450 3153 3228 2886 
Q 3006 2619 2597 2516 
z
" id="DejaVuSans-33" transform="scale(0.015625)"/>
      </defs>
      <use xlink:href="#DejaVuSans-34"/>
      <use x="63.623047" xlink:href="#DejaVuSans-36"/>
      <use x="127.246094" xlink:href="#DejaVuSans-33"/>
      <use x="190.869141" xlink:href="#DejaVuSans-34"/>
     </g>
    </g>
   </g>
   <g id="text_10">
    <g clip-path="url(#p6a989a6f15)">
     <!-- 4647 -->
     <g transform="translate(551.53391 509.363125)scale(0.14 -0.14)">
      <use xlink:href="#DejaVuSans-34"/>
      <use x="63.623047" xlink:href="#DejaVuSans-36"/>
      <use x="127.246094" xlink:href="#DejaVuSans-34"/>
      <use x="190.869141" xlink:href="#DejaVuSans-37"/>
     </g>
    </g>
   </g>
   <g id="text_11">
    <g clip-path="url(#p6a989a6f15)">
     <!-- 4688 -->
     <g transform="translate(1012.385 215.012254)scale(0.14 -0.14)">
      <use xlink:href="#DejaVuSans-34"/>
      <use x="63.623047" xlink:href="#DejaVuSans-36"/>
      <use x="127.246094" xlink:href="#DejaVuSans-38"/>
      <use x="190.869141" xlink:href="#DejaVuSans-38"/>
     </g>
    </g>
   </g>
   <g id="text_12">
    <g clip-path="url(#p6a989a6f15)">
     <!-- target_user_logon_id -->
     <g transform="translate(896.864462 103.583657)scale(0.14 -0.14)">
      <defs>
       <path d="M 2194 1759 
Q 1497 1759 1228 1600 
Q 959 1441 959 1056 
Q 959 750 1161 570 
Q 1363 391 1709 391 
Q 2188 391 2477 730 
Q 2766 1069 2766 1631 
L 2766 1759 
L 2194 1759 
z
M 3341 1997 
L 3341 0 
L 2766 0 
L 2766 531 
Q 2569 213 2275 61 
Q 1981 -91 1556 -91 
Q 1019 -91 701 211 
Q 384 513 384 1019 
Q 384 1609 779 1909 
Q 1175 2209 1959 2209 
L 2766 2209 
L 2766 2266 
Q 2766 2663 2505 2880 
Q 2244 3097 1772 3097 
Q 1472 3097 1187 3025 
Q 903 2953 641 2809 
L 641 3341 
Q 956 3463 1253 3523 
Q 1550 3584 1831 3584 
Q 2591 3584 2966 3190 
Q 3341 2797 3341 1997 
z
" id="DejaVuSans-61" transform="scale(0.015625)"/>
      </defs>
      <use xlink:href="#DejaVuSans-74"/>
      <use x="39.208984" xlink:href="#DejaVuSans-61"/>
      <use x="100.488281" xlink:href="#DejaVuSans-72"/>
      <use x="139.851562" xlink:href="#DejaVuSans-67"/>
      <use x="203.328125" xlink:href="#DejaVuSans-65"/>
      <use x="264.851562" xlink:href="#DejaVuSans-74"/>
      <use x="304.060547" xlink:href="#DejaVuSans-5f"/>
      <use x="354.060547" xlink:href="#DejaVuSans-75"/>
      <use x="417.439453" xlink:href="#DejaVuSans-73"/>
      <use x="469.539062" xlink:href="#DejaVuSans-65"/>
      <use x="531.0625" xlink:href="#DejaVuSans-72"/>
      <use x="572.175781" xlink:href="#DejaVuSans-5f"/>
      <use x="622.175781" xlink:href="#DejaVuSans-6c"/>
      <use x="649.958984" xlink:href="#DejaVuSans-6f"/>
      <use x="711.140625" xlink:href="#DejaVuSans-67"/>
      <use x="774.617188" xlink:href="#DejaVuSans-6f"/>
      <use x="835.798828" xlink:href="#DejaVuSans-6e"/>
      <use x="899.177734" xlink:href="#DejaVuSans-5f"/>
      <use x="949.177734" xlink:href="#DejaVuSans-69"/>
      <use x="976.960938" xlink:href="#DejaVuSans-64"/>
     </g>
    </g>
   </g>
   <g id="text_13">
    <g clip-path="url(#p6a989a6f15)">
     <!-- 4696 -->
     <g transform="translate(817.493393 175.375679)scale(0.14 -0.14)">
      <defs>
       <path d="M 703 97 
L 703 672 
Q 941 559 1184 500 
Q 1428 441 1663 441 
Q 2288 441 2617 861 
Q 2947 1281 2994 2138 
Q 2813 1869 2534 1725 
Q 2256 1581 1919 1581 
Q 1219 1581 811 2004 
Q 403 2428 403 3163 
Q 403 3881 828 4315 
Q 1253 4750 1959 4750 
Q 2769 4750 3195 4129 
Q 3622 3509 3622 2328 
Q 3622 1225 3098 567 
Q 2575 -91 1691 -91 
Q 1453 -91 1209 -44 
Q 966 3 703 97 
z
M 1959 2075 
Q 2384 2075 2632 2365 
Q 2881 2656 2881 3163 
Q 2881 3666 2632 3958 
Q 2384 4250 1959 4250 
Q 1534 4250 1286 3958 
Q 1038 3666 1038 3163 
Q 1038 2656 1286 2365 
Q 1534 2075 1959 2075 
z
" id="DejaVuSans-39" transform="scale(0.015625)"/>
      </defs>
      <use xlink:href="#DejaVuSans-34"/>
      <use x="63.623047" xlink:href="#DejaVuSans-36"/>
      <use x="127.246094" xlink:href="#DejaVuSans-39"/>
      <use x="190.869141" xlink:href="#DejaVuSans-36"/>
     </g>
    </g>
   </g>
   <g id="text_14">
    <g clip-path="url(#p6a989a6f15)">
     <!-- 4703 -->
     <g transform="translate(899.972526 230.155012)scale(0.14 -0.14)">
      <defs>
       <path d="M 2034 4250 
Q 1547 4250 1301 3770 
Q 1056 3291 1056 2328 
Q 1056 1369 1301 889 
Q 1547 409 2034 409 
Q 2525 409 2770 889 
Q 3016 1369 3016 2328 
Q 3016 3291 2770 3770 
Q 2525 4250 2034 4250 
z
M 2034 4750 
Q 2819 4750 3233 4129 
Q 3647 3509 3647 2328 
Q 3647 1150 3233 529 
Q 2819 -91 2034 -91 
Q 1250 -91 836 529 
Q 422 1150 422 2328 
Q 422 3509 836 4129 
Q 1250 4750 2034 4750 
z
" id="DejaVuSans-30" transform="scale(0.015625)"/>
      </defs>
      <use xlink:href="#DejaVuSans-34"/>
      <use x="63.623047" xlink:href="#DejaVuSans-37"/>
      <use x="127.246094" xlink:href="#DejaVuSans-30"/>
      <use x="190.869141" xlink:href="#DejaVuSans-33"/>
     </g>
    </g>
   </g>
   <g id="text_15">
    <g clip-path="url(#p6a989a6f15)">
     <!-- 4800 -->
     <g transform="translate(946.348561 430.317664)scale(0.14 -0.14)">
      <use xlink:href="#DejaVuSans-34"/>
      <use x="63.623047" xlink:href="#DejaVuSans-38"/>
      <use x="127.246094" xlink:href="#DejaVuSans-30"/>
      <use x="190.869141" xlink:href="#DejaVuSans-30"/>
     </g>
    </g>
   </g>
   <g id="text_16">
    <g clip-path="url(#p6a989a6f15)">
     <!-- 4801 -->
     <g transform="translate(845.662192 488.614639)scale(0.14 -0.14)">
      <use xlink:href="#DejaVuSans-34"/>
      <use x="63.623047" xlink:href="#DejaVuSans-38"/>
      <use x="127.246094" xlink:href="#DejaVuSans-30"/>
      <use x="190.869141" xlink:href="#DejaVuSans-31"/>
     </g>
    </g>
   </g>
   <g id="text_17">
    <g clip-path="url(#p6a989a6f15)">
     <!-- 4802 -->
     <g transform="translate(426.036975 458.053251)scale(0.14 -0.14)">
      <use xlink:href="#DejaVuSans-34"/>
      <use x="63.623047" xlink:href="#DejaVuSans-38"/>
      <use x="127.246094" xlink:href="#DejaVuSans-30"/>
      <use x="190.869141" xlink:href="#DejaVuSans-32"/>
     </g>
    </g>
   </g>
   <g id="text_18">
    <g clip-path="url(#p6a989a6f15)">
     <!-- 4803 -->
     <g transform="translate(1003.939562 355.557716)scale(0.14 -0.14)">
      <use xlink:href="#DejaVuSans-34"/>
      <use x="63.623047" xlink:href="#DejaVuSans-38"/>
      <use x="127.246094" xlink:href="#DejaVuSans-30"/>
      <use x="190.869141" xlink:href="#DejaVuSans-33"/>
     </g>
    </g>
   </g>
   <g id="text_19">
    <g clip-path="url(#p6a989a6f15)">
     <!-- 4964 -->
     <g transform="translate(729.67001 128.98681)scale(0.14 -0.14)">
      <use xlink:href="#DejaVuSans-34"/>
      <use x="63.623047" xlink:href="#DejaVuSans-39"/>
      <use x="127.246094" xlink:href="#DejaVuSans-36"/>
      <use x="190.869141" xlink:href="#DejaVuSans-34"/>
     </g>
    </g>
   </g>
   <g id="legend_1">
    <g id="patch_2">
     <path d="M 1007.319219 55.763125 
L 1114.1 55.763125 
Q 1116.7 55.763125 1116.7 53.163125 
L 1116.7 16.3 
Q 1116.7 13.7 1114.1 13.7 
L 1007.319219 13.7 
Q 1004.719219 13.7 1004.719219 16.3 
L 1004.719219 53.163125 
Q 1004.719219 55.763125 1007.319219 55.763125 
z
" style="fill:#ffffff;opacity:0.8;stroke:#cccccc;stroke-linejoin:miter;"/>
    </g>
    <g id="patch_3">
     <path d="M 1009.919219 28.777969 
L 1035.919219 28.777969 
L 1035.919219 19.677969 
L 1009.919219 19.677969 
z
" style="fill:#d3d3d3;stroke:#d3d3d3;stroke-linejoin:miter;"/>
    </g>
    <g id="text_20">
     <!-- Event -->
     <g transform="translate(1046.319219 28.777969)scale(0.13 -0.13)">
      <defs>
       <path d="M 628 4666 
L 3578 4666 
L 3578 4134 
L 1259 4134 
L 1259 2753 
L 3481 2753 
L 3481 2222 
L 1259 2222 
L 1259 531 
L 3634 531 
L 3634 0 
L 628 0 
L 628 4666 
z
" id="DejaVuSans-45" transform="scale(0.015625)"/>
       <path d="M 191 3500 
L 800 3500 
L 1894 563 
L 2988 3500 
L 3597 3500 
L 2284 0 
L 1503 0 
L 191 3500 
z
" id="DejaVuSans-76" transform="scale(0.015625)"/>
      </defs>
      <use xlink:href="#DejaVuSans-45"/>
      <use x="63.183594" xlink:href="#DejaVuSans-76"/>
      <use x="122.363281" xlink:href="#DejaVuSans-65"/>
      <use x="183.886719" xlink:href="#DejaVuSans-6e"/>
      <use x="247.265625" xlink:href="#DejaVuSans-74"/>
     </g>
    </g>
    <g id="patch_4">
     <path d="M 1009.919219 47.859531 
L 1035.919219 47.859531 
L 1035.919219 38.759531 
L 1009.919219 38.759531 
z
" style="fill:#00ff00;stroke:#00ff00;stroke-linejoin:miter;"/>
    </g>
    <g id="text_21">
     <!-- Data Field -->
     <g transform="translate(1046.319219 47.859531)scale(0.13 -0.13)">
      <defs>
       <path d="M 1259 4147 
L 1259 519 
L 2022 519 
Q 2988 519 3436 956 
Q 3884 1394 3884 2338 
Q 3884 3275 3436 3711 
Q 2988 4147 2022 4147 
L 1259 4147 
z
M 628 4666 
L 1925 4666 
Q 3281 4666 3915 4102 
Q 4550 3538 4550 2338 
Q 4550 1131 3912 565 
Q 3275 0 1925 0 
L 628 0 
L 628 4666 
z
" id="DejaVuSans-44" transform="scale(0.015625)"/>
       <path id="DejaVuSans-20" transform="scale(0.015625)"/>
       <path d="M 628 4666 
L 3309 4666 
L 3309 4134 
L 1259 4134 
L 1259 2759 
L 3109 2759 
L 3109 2228 
L 1259 2228 
L 1259 0 
L 628 0 
L 628 4666 
z
" id="DejaVuSans-46" transform="scale(0.015625)"/>
      </defs>
      <use xlink:href="#DejaVuSans-44"/>
      <use x="77.001953" xlink:href="#DejaVuSans-61"/>
      <use x="138.28125" xlink:href="#DejaVuSans-74"/>
      <use x="177.490234" xlink:href="#DejaVuSans-61"/>
      <use x="238.769531" xlink:href="#DejaVuSans-20"/>
      <use x="270.556641" xlink:href="#DejaVuSans-46"/>
      <use x="320.826172" xlink:href="#DejaVuSans-69"/>
      <use x="348.609375" xlink:href="#DejaVuSans-65"/>
      <use x="410.132812" xlink:href="#DejaVuSans-6c"/>
      <use x="437.916016" xlink:href="#DejaVuSans-64"/>
     </g>
    </g>
   </g>
  </g>
 </g>
 <defs>
  <clipPath id="p6a989a6f15">
   <rect height="543.6" width="1116" x="7.2" y="7.2"/>
  </clipPath>
 </defs>
</svg>
